<svg width="24" height="22" viewBox="0 0 24 22" fill="none" xmlns="http://www.w3.org/2000/svg">
<mask id="path-1-inside-1_211_2339" fill="white">
<path d="M15.0113 10.7644C14.8437 10.7644 14.6881 10.7184 14.5499 10.6442V10.6462C14.5499 10.9099 14.4474 11.1575 14.2614 11.343C14.0754 11.529 13.828 11.6315 13.5646 11.6315C13.3945 11.6315 13.2369 11.5843 13.0972 11.5082C13.0831 11.7494 12.9867 11.9749 12.8146 12.1471C12.6287 12.3331 12.3812 12.4355 12.1176 12.4355C11.594 12.4355 11.1688 12.0239 11.1381 11.508C10.9761 11.5956 10.7929 11.6415 10.604 11.6293C10.0889 11.5956 9.68546 11.1505 9.68546 10.6159V6.18423L9.18083 7.05847C8.98864 7.39284 8.62885 7.60045 8.24148 7.60045C8.05273 7.60045 7.86627 7.55093 7.70113 7.4563C7.49549 7.33708 7.34839 7.1457 7.28722 6.91675C7.22572 6.68766 7.25753 6.44806 7.37643 6.24273C7.37659 6.24273 9.0275 3.38383 9.12821 3.20822C9.14018 3.18182 9.1743 3.10524 9.20332 3.03997C9.23104 2.97765 9.25482 2.91369 9.27761 2.84941C9.77548 1.44385 11.0082 0.570743 12.495 0.570743C14.4257 0.570743 15.9964 2.27396 15.9964 4.36752L15.9965 9.77901C15.9965 10.0424 15.8942 10.2898 15.7084 10.476C15.5224 10.662 15.275 10.7645 15.0113 10.7645L15.0113 10.7644ZM12.495 1.09429C11.2175 1.09429 10.1993 1.81587 9.77109 3.0245C9.7437 3.10124 9.71517 3.17799 9.68187 3.25277C9.58528 3.46941 9.58528 3.46941 9.55806 3.50056L9.55445 3.49745C9.41965 3.7518 9.01918 4.44532 7.82974 6.50475C7.78087 6.58921 7.76792 6.68728 7.79284 6.78108C7.8181 6.87488 7.87861 6.95393 7.96242 7.0023C8.22251 7.1517 8.57871 7.05527 8.72695 6.79698L9.72058 5.07669C9.77995 4.97419 9.89999 4.92384 10.0151 4.955C10.1296 4.98567 10.2091 5.08948 10.2091 5.20788V10.616C10.2091 10.8712 10.4016 11.0914 10.6383 11.107C10.7747 11.1142 10.902 11.0685 10.9976 10.973C11.0845 10.8861 11.1324 10.7703 11.1324 10.6465V7.10951C11.1324 6.96487 11.2497 6.84761 11.3943 6.84761C11.5389 6.84761 11.6562 6.96471 11.6562 7.10951L11.656 11.4505C11.656 11.705 11.8632 11.9121 12.1177 11.9121C12.2413 11.9121 12.3574 11.8642 12.4445 11.7773C12.5314 11.6902 12.5793 11.5741 12.5793 11.4505V7.10951C12.5793 6.96487 12.6964 6.84761 12.8412 6.84761C12.9858 6.84761 13.1031 6.9647 13.1031 7.10951L13.1029 10.6058V10.6465C13.1029 10.9008 13.3101 11.108 13.5647 11.108C13.6882 11.108 13.804 11.0599 13.8916 10.9727C13.9785 10.8859 14.0264 10.7701 14.0264 10.6463V7.10932C14.0264 6.96468 14.1435 6.84743 14.2883 6.84743C14.4329 6.84743 14.5502 6.96452 14.5502 7.10932L14.5498 9.77913C14.5498 10.0338 14.757 10.2409 15.0113 10.2409C15.1351 10.2409 15.2509 10.1929 15.3378 10.1061C15.4251 10.0189 15.4728 9.90278 15.4728 9.77913L15.4729 4.36764C15.4729 2.56292 14.1371 1.09434 12.495 1.09434L12.495 1.09429Z"/>
</mask>
<path d="M15.0113 10.7644C14.8437 10.7644 14.6881 10.7184 14.5499 10.6442V10.6462C14.5499 10.9099 14.4474 11.1575 14.2614 11.343C14.0754 11.529 13.828 11.6315 13.5646 11.6315C13.3945 11.6315 13.2369 11.5843 13.0972 11.5082C13.0831 11.7494 12.9867 11.9749 12.8146 12.1471C12.6287 12.3331 12.3812 12.4355 12.1176 12.4355C11.594 12.4355 11.1688 12.0239 11.1381 11.508C10.9761 11.5956 10.7929 11.6415 10.604 11.6293C10.0889 11.5956 9.68546 11.1505 9.68546 10.6159V6.18423L9.18083 7.05847C8.98864 7.39284 8.62885 7.60045 8.24148 7.60045C8.05273 7.60045 7.86627 7.55093 7.70113 7.4563C7.49549 7.33708 7.34839 7.1457 7.28722 6.91675C7.22572 6.68766 7.25753 6.44806 7.37643 6.24273C7.37659 6.24273 9.0275 3.38383 9.12821 3.20822C9.14018 3.18182 9.1743 3.10524 9.20332 3.03997C9.23104 2.97765 9.25482 2.91369 9.27761 2.84941C9.77548 1.44385 11.0082 0.570743 12.495 0.570743C14.4257 0.570743 15.9964 2.27396 15.9964 4.36752L15.9965 9.77901C15.9965 10.0424 15.8942 10.2898 15.7084 10.476C15.5224 10.662 15.275 10.7645 15.0113 10.7645L15.0113 10.7644ZM12.495 1.09429C11.2175 1.09429 10.1993 1.81587 9.77109 3.0245C9.7437 3.10124 9.71517 3.17799 9.68187 3.25277C9.58528 3.46941 9.58528 3.46941 9.55806 3.50056L9.55445 3.49745C9.41965 3.7518 9.01918 4.44532 7.82974 6.50475C7.78087 6.58921 7.76792 6.68728 7.79284 6.78108C7.8181 6.87488 7.87861 6.95393 7.96242 7.0023C8.22251 7.1517 8.57871 7.05527 8.72695 6.79698L9.72058 5.07669C9.77995 4.97419 9.89999 4.92384 10.0151 4.955C10.1296 4.98567 10.2091 5.08948 10.2091 5.20788V10.616C10.2091 10.8712 10.4016 11.0914 10.6383 11.107C10.7747 11.1142 10.902 11.0685 10.9976 10.973C11.0845 10.8861 11.1324 10.7703 11.1324 10.6465V7.10951C11.1324 6.96487 11.2497 6.84761 11.3943 6.84761C11.5389 6.84761 11.6562 6.96471 11.6562 7.10951L11.656 11.4505C11.656 11.705 11.8632 11.9121 12.1177 11.9121C12.2413 11.9121 12.3574 11.8642 12.4445 11.7773C12.5314 11.6902 12.5793 11.5741 12.5793 11.4505V7.10951C12.5793 6.96487 12.6964 6.84761 12.8412 6.84761C12.9858 6.84761 13.1031 6.9647 13.1031 7.10951L13.1029 10.6058V10.6465C13.1029 10.9008 13.3101 11.108 13.5647 11.108C13.6882 11.108 13.804 11.0599 13.8916 10.9727C13.9785 10.8859 14.0264 10.7701 14.0264 10.6463V7.10932C14.0264 6.96468 14.1435 6.84743 14.2883 6.84743C14.4329 6.84743 14.5502 6.96452 14.5502 7.10932L14.5498 9.77913C14.5498 10.0338 14.757 10.2409 15.0113 10.2409C15.1351 10.2409 15.2509 10.1929 15.3378 10.1061C15.4251 10.0189 15.4728 9.90278 15.4728 9.77913L15.4729 4.36764C15.4729 2.56292 14.1371 1.09434 12.495 1.09434L12.495 1.09429Z" fill="#4CAF4F"/>
<path d="M15.0113 10.7644V9.83635H18.2903L15.4977 11.5549L15.0113 10.7644ZM14.5499 10.6442H13.6218V9.0935L14.9884 9.8263L14.5499 10.6442ZM14.2614 11.343L13.6051 10.6868L13.606 10.6859L14.2614 11.343ZM13.0972 11.5082L12.1707 11.454L12.2561 9.99332L13.5411 10.6931L13.0972 11.5082ZM12.8146 12.1471L13.4712 12.803L13.4709 12.8033L12.8146 12.1471ZM11.1381 11.508L10.6968 10.6915L11.9782 9.99898L12.0646 11.453L11.1381 11.508ZM10.604 11.6293L10.5445 12.5555L10.5432 12.5555L10.604 11.6293ZM9.68546 6.18423L8.88166 5.72026L10.6136 2.71985V6.18423H9.68546ZM9.18083 7.05847L8.37619 6.59596L8.37704 6.5945L9.18083 7.05847ZM7.70113 7.4563L7.23971 8.26158L7.23565 8.25922L7.70113 7.4563ZM7.28722 6.91675L8.18358 6.67614L8.18386 6.67719L7.28722 6.91675ZM7.37643 6.24273L6.57326 5.77767L6.84137 5.31464H7.37643V6.24273ZM9.12821 3.20822L9.97348 3.59148L9.95525 3.63167L9.9333 3.66995L9.12821 3.20822ZM9.20332 3.03997L8.35531 2.66284L8.35531 2.66283L9.20332 3.03997ZM9.27761 2.84941L10.1524 3.15928L10.1524 3.15953L9.27761 2.84941ZM15.9964 4.36752L15.0683 4.36755V4.36752H15.9964ZM15.9965 9.77901L16.9246 9.77898V9.77901H15.9965ZM15.7084 10.476L16.3653 11.1316L16.3647 11.1323L15.7084 10.476ZM15.0113 10.7645V11.6926H11.7323L14.5249 9.97404L15.0113 10.7645ZM12.495 1.09429V0.166194H13.7254L13.3874 1.34925L12.495 1.09429ZM9.77109 3.0245L10.6459 3.33442L10.6452 3.33641L9.77109 3.0245ZM9.68187 3.25277L10.5297 3.63023L10.5295 3.63072L9.68187 3.25277ZM9.55806 3.50056L10.257 4.11122L9.64981 4.8061L8.95144 4.20297L9.55806 3.50056ZM9.55445 3.49745L8.7344 3.06285L9.27973 2.03389L10.1611 2.79505L9.55445 3.49745ZM7.82974 6.50475L8.63342 6.96892L8.63304 6.96959L7.82974 6.50475ZM7.79284 6.78108L6.89666 7.02235L6.89589 7.01945L7.79284 6.78108ZM7.96242 7.0023L7.50015 7.80708L7.49841 7.80608L7.96242 7.0023ZM8.72695 6.79698L7.92201 6.335L7.92328 6.33279L8.72695 6.79698ZM9.72058 5.07668L8.91692 4.61249L8.91748 4.61152L9.72058 5.07668ZM10.0151 4.955L9.77494 5.85149L9.77264 5.85086L10.0151 4.955ZM10.6383 11.107L10.5893 12.0339L10.5773 12.0331L10.6383 11.107ZM10.9976 10.973L11.6539 11.6293L11.6533 11.6298L10.9976 10.973ZM11.6562 7.10951H12.5843V7.10955L11.6562 7.10951ZM11.656 11.4505H10.7279V11.4504L11.656 11.4505ZM12.4445 11.7773L13.1014 12.4329L13.1001 12.4342L12.4445 11.7773ZM13.1031 7.10951H14.0312V7.10955L13.1031 7.10951ZM13.1029 10.6058H12.1748V10.6058L13.1029 10.6058ZM13.8916 10.9727L14.5472 11.6295L14.5466 11.6301L13.8916 10.9727ZM14.5502 7.10932H15.4783V7.10944L14.5502 7.10932ZM14.5498 9.77913H13.6218V9.77902L14.5498 9.77913ZM15.3378 10.1061L15.9941 10.7624L15.9935 10.763L15.3378 10.1061ZM15.4728 9.77913H14.5447V9.7791L15.4728 9.77913ZM15.4729 4.36764H16.401V4.36767L15.4729 4.36764ZM12.495 1.09434V2.02243H11.2646L11.6026 0.839374L12.495 1.09434ZM15.0113 11.6925C14.6696 11.6925 14.3645 11.5979 14.1113 11.4622L14.9884 9.8263C15.0004 9.83273 15.008 9.83519 15.0111 9.836C15.0137 9.8367 15.0133 9.83635 15.0113 9.83635V11.6925ZM15.478 10.6442V10.6462H13.6218V10.6442H15.478ZM15.478 10.6462C15.478 11.1553 15.2782 11.6397 14.9168 12.0001L13.606 10.6859C13.6126 10.6793 13.6159 10.6736 13.6178 10.669C13.6198 10.6643 13.6218 10.6572 13.6218 10.6462H15.478ZM14.9177 11.9993C14.5575 12.3594 14.0739 12.5596 13.5646 12.5596V10.7034C13.5752 10.7034 13.5822 10.7015 13.587 10.6995C13.5917 10.6975 13.5979 10.694 13.6051 10.6868L14.9177 11.9993ZM13.5646 12.5596C13.2184 12.5596 12.9095 12.4627 12.6533 12.3232L13.5411 10.6931C13.5531 10.6997 13.5608 10.7022 13.5638 10.703C13.5664 10.7037 13.5662 10.7034 13.5646 10.7034V12.5596ZM14.0237 11.5623C13.997 12.0191 13.8117 12.4622 13.4712 12.803L12.158 11.4912C12.1615 11.4877 12.1635 11.4847 12.1652 11.4808C12.167 11.4767 12.1699 11.4682 12.1707 11.454L14.0237 11.5623ZM13.4709 12.8033C13.1107 13.1636 12.6271 13.3636 12.1176 13.3636V11.5075C12.1284 11.5075 12.1355 11.5055 12.1403 11.5035C12.145 11.5016 12.1511 11.4981 12.1584 11.4908L13.4709 12.8033ZM12.1176 13.3636C11.093 13.3636 10.2709 12.5595 10.2117 11.563L12.0646 11.453C12.0655 11.4688 12.072 11.4826 12.0834 11.4935C12.089 11.4988 12.0946 11.5022 12.0995 11.5042C12.1039 11.506 12.1094 11.5075 12.1176 11.5075V13.3636ZM11.5794 12.3245C11.2796 12.4865 10.9242 12.5799 10.5445 12.5555L10.6635 10.7032C10.6635 10.7032 10.6655 10.7034 10.6704 10.7022C10.6756 10.701 10.6847 10.6981 10.6968 10.6915L11.5794 12.3245ZM10.5432 12.5555C9.51276 12.4879 8.75737 11.6115 8.75737 10.6159H10.6136C10.6136 10.6472 10.6249 10.6714 10.6392 10.6872C10.6531 10.7025 10.6626 10.7031 10.6647 10.7032L10.5432 12.5555ZM8.75737 10.6159V6.18423H10.6136V10.6159H8.75737ZM10.4893 6.6482L9.98463 7.52243L8.37704 6.5945L8.88166 5.72026L10.4893 6.6482ZM9.98548 7.52097C9.62685 8.14488 8.95932 8.52855 8.24148 8.52855V6.67236C8.29839 6.67236 8.35042 6.6408 8.37619 6.59596L9.98548 7.52097ZM8.24148 8.52855C7.89052 8.52855 7.54503 8.43651 7.23972 8.26157L8.16255 6.65104C8.18751 6.66534 8.21494 6.67236 8.24148 6.67236V8.52855ZM7.23565 8.25922C6.81896 8.01766 6.51567 7.62453 6.39057 7.15632L8.18386 6.67719C8.18301 6.67402 8.1807 6.66841 8.17623 6.66259C8.17179 6.65681 8.16768 6.654 8.16662 6.65339L7.23565 8.25922ZM6.39085 7.15736C6.26527 6.68949 6.33101 6.19603 6.57326 5.77767L8.17959 6.70779C8.18092 6.7055 8.18324 6.70021 8.18423 6.69271C8.18523 6.68519 8.18439 6.67918 8.18358 6.67614L6.39085 7.15736ZM7.37643 5.31464C6.92116 5.43397 6.5804 5.76556 6.57785 5.76983C6.57701 5.77126 6.57574 5.77341 6.57534 5.7741C6.57511 5.77449 6.57471 5.77517 6.57458 5.7754C6.5745 5.77554 6.57433 5.77583 6.57429 5.7759C6.57416 5.77613 6.5742 5.77606 6.57455 5.77545C6.57518 5.77437 6.57623 5.77254 6.57778 5.76987C6.58082 5.7646 6.5854 5.75668 6.59145 5.74621C6.60354 5.7253 6.6213 5.69456 6.64397 5.65532C6.6893 5.57684 6.75417 5.46451 6.83235 5.32914C6.98871 5.0584 7.19822 4.69558 7.41087 4.32727C7.83689 3.58941 8.27365 2.83275 8.32313 2.74649L9.9333 3.66995C9.88206 3.7593 9.44301 4.5199 9.01836 5.25539C8.80567 5.62375 8.59613 5.98663 8.43975 6.25742C8.36156 6.39282 8.29664 6.50521 8.25126 6.58377C8.22858 6.62304 8.21075 6.65389 8.19859 6.67495C8.19251 6.68546 8.1878 6.69361 8.18459 6.69917C8.183 6.70192 8.18168 6.70419 8.18072 6.70586C8.18027 6.70663 8.17971 6.70759 8.17918 6.70851C8.17898 6.70885 8.17838 6.70987 8.17767 6.7111C8.17722 6.71187 8.17591 6.71408 8.17504 6.71556C8.17247 6.71988 7.83169 7.05149 7.37643 7.17082V5.31464ZM8.28295 2.82496C8.29317 2.80243 8.32554 2.72979 8.35531 2.66284L10.0513 3.41709C10.0231 3.48069 9.9872 3.56121 9.97348 3.59148L8.28295 2.82496ZM8.35531 2.66283C8.36821 2.63382 8.38249 2.59676 8.40287 2.53928L10.1524 3.15953C10.1272 3.23062 10.0939 3.32147 10.0513 3.4171L8.35531 2.66283ZM8.40278 2.53953C9.03137 0.764915 10.6135 -0.357349 12.495 -0.357349V1.49884C11.4029 1.49884 10.5196 2.12278 10.1524 3.15928L8.40278 2.53953ZM12.495 -0.357349C15.0076 -0.357349 16.9245 1.83359 16.9245 4.36752H15.0683C15.0683 2.71432 13.8438 1.49884 12.495 1.49884V-0.357349ZM16.9245 4.36749L16.9246 9.77898L15.0685 9.77904L15.0683 4.36755L16.9245 4.36749ZM16.9246 9.77901C16.9246 10.288 16.725 10.7713 16.3653 11.1316L15.0515 9.82034C15.0589 9.81299 15.0625 9.80674 15.0645 9.80187C15.0665 9.79699 15.0685 9.78983 15.0685 9.77901H16.9246ZM16.3647 11.1323C16.0044 11.4925 15.5208 11.6926 15.0113 11.6926V9.83637C15.0222 9.83637 15.0293 9.83438 15.0341 9.83242C15.0388 9.83047 15.0449 9.82697 15.0521 9.81974L16.3647 11.1323ZM14.5249 9.97404L14.5249 9.97402L15.4977 11.5549L15.4977 11.5549L14.5249 9.97404ZM12.495 2.02238C11.6126 2.02238 10.9435 2.49442 10.6459 3.33442L8.89627 2.71458C9.45503 1.13733 10.8224 0.166194 12.495 0.166194V2.02238ZM10.6452 3.33641C10.6159 3.41851 10.5778 3.5222 10.5297 3.63023L8.834 2.87532C8.85249 2.83379 8.8715 2.78398 8.89698 2.71258L10.6452 3.33641ZM10.5295 3.63072C10.487 3.72604 10.4514 3.80654 10.4242 3.86107C10.4073 3.89491 10.3799 3.94707 10.3402 4.00484C10.2999 4.06337 10.2602 4.10752 10.257 4.11122L8.85916 2.88991C8.86134 2.88742 8.86063 2.88823 8.85953 2.8895C8.85811 2.89115 8.85451 2.89536 8.84977 2.90113C8.84487 2.9071 8.83869 2.91482 8.83174 2.924C8.82472 2.93326 8.81757 2.94311 8.81043 2.9535C8.79589 2.97466 8.7847 2.99319 8.77674 3.0072C8.7693 3.02029 8.76475 3.02934 8.76373 3.03138C8.76268 3.03349 8.76334 3.03225 8.76649 3.0255C8.76955 3.01895 8.77388 3.00953 8.78008 2.99582C8.78624 2.98222 8.79361 2.9658 8.80268 2.94551C8.81174 2.92525 8.82209 2.90204 8.83422 2.87483L10.5295 3.63072ZM8.95144 4.20297L8.94783 4.19985L10.1611 2.79505L10.1647 2.79816L8.95144 4.20297ZM10.3745 3.93205C10.2292 4.20613 9.81456 4.92386 8.63342 6.96892L7.02606 6.04058C8.2238 3.96678 8.61006 3.29747 8.7344 3.06285L10.3745 3.93205ZM8.63304 6.96959C8.7073 6.84126 8.728 6.68642 8.6898 6.5427L6.89589 7.01945C6.80784 6.68813 6.85445 6.33716 7.02645 6.03991L8.63304 6.96959ZM8.68903 6.5398C8.65084 6.39795 8.55697 6.27389 8.42642 6.19852L7.49841 7.80608C7.20026 7.63396 6.98536 7.35181 6.89666 7.02235L8.68903 6.5398ZM8.42468 6.19753C8.31904 6.13684 8.21629 6.13724 8.14534 6.15635C8.07467 6.17537 7.98404 6.22692 7.92201 6.335L9.53189 7.25897C9.12741 7.96372 8.20301 8.21081 7.50015 7.80708L8.42468 6.19753ZM7.92328 6.33279L8.91692 4.61249L10.5243 5.54088L9.53062 7.26118L7.92328 6.33279ZM8.91748 4.61152C9.18555 4.1487 9.73272 3.91708 10.2576 4.05914L9.77264 5.85086C10.0673 5.9306 10.3743 5.79968 10.5237 5.54186L8.91748 4.61152ZM10.2553 4.05853C10.776 4.19802 11.1372 4.66986 11.1372 5.20788H9.28102C9.28102 5.5091 9.48321 5.77332 9.77494 5.85148L10.2553 4.05853ZM11.1372 5.20788V10.616H9.28102V5.20788H11.1372ZM11.1372 10.616C11.1372 10.5103 11.098 10.4141 11.0337 10.3405C10.9695 10.2671 10.8562 10.1912 10.6992 10.1809L10.5773 12.0331C9.79607 11.9817 9.28102 11.3011 9.28102 10.616H11.1372ZM10.6873 10.1802C10.5777 10.1744 10.4437 10.2146 10.3419 10.3162L11.6533 11.6298C11.3603 11.9223 10.9718 12.054 10.5893 12.0338L10.6873 10.1802ZM10.3413 10.3167C10.2533 10.4048 10.2043 10.5255 10.2043 10.6465H12.0605C12.0605 11.0151 11.9158 11.3674 11.6539 11.6293L10.3413 10.3167ZM10.2043 10.6465V7.10951H12.0605V10.6465H10.2043ZM10.2043 7.10951C10.2043 6.4523 10.7371 5.91952 11.3943 5.91952V7.77571C11.7622 7.77571 12.0605 7.47744 12.0605 7.10951H10.2043ZM11.3943 5.91952C12.0511 5.91952 12.5843 6.45176 12.5843 7.10951H10.7281C10.7281 7.47765 11.0267 7.77571 11.3943 7.77571V5.91952ZM12.5843 7.10955L12.5841 11.4505L10.7279 11.4504L10.7281 7.10948L12.5843 7.10955ZM12.5841 11.4505C12.5841 11.1924 12.3757 10.984 12.1177 10.984V12.8402C11.3506 12.8402 10.7279 12.2176 10.7279 11.4505H12.5841ZM12.1177 10.984C11.9969 10.984 11.8768 11.0327 11.7889 11.1204L13.1001 12.4342C12.8381 12.6957 12.4858 12.8402 12.1177 12.8402V10.984ZM11.7876 11.1217C11.6999 11.2096 11.6512 11.3297 11.6512 11.4505H13.5074C13.5074 11.8185 13.363 12.1709 13.1014 12.4329L11.7876 11.1217ZM11.6512 11.4505V7.10951H13.5074V11.4505H11.6512ZM11.6512 7.10951C11.6512 6.45268 12.1834 5.91952 12.8412 5.91952V7.7757C13.2094 7.7757 13.5074 7.47705 13.5074 7.10951H11.6512ZM12.8412 5.91952C13.498 5.91952 14.0312 6.45175 14.0312 7.10951H12.175C12.175 7.47765 12.4737 7.7757 12.8412 7.7757V5.91952ZM14.0312 7.10955L14.031 10.6059L12.1748 10.6058L12.175 7.10946L14.0312 7.10955ZM14.031 10.6058V10.6465H12.1748V10.6058H14.031ZM14.031 10.6465C14.031 10.3878 13.8222 10.1799 13.5647 10.1799V12.036C12.7979 12.036 12.1748 11.4139 12.1748 10.6465H14.031ZM13.5647 10.1799C13.4414 10.1799 13.322 10.23 13.2366 10.3152L14.5466 11.6301C14.286 11.8898 13.935 12.036 13.5647 12.036V10.1799ZM13.2359 10.3158C13.1472 10.4044 13.0983 10.5255 13.0983 10.6463H14.9545C14.9545 11.0148 14.8098 11.3674 14.5472 11.6295L13.2359 10.3158ZM13.0983 10.6463V7.10932H14.9545V10.6463H13.0983ZM13.0983 7.10932C13.0983 6.45248 13.6305 5.91934 14.2883 5.91934V7.77552C14.6564 7.77552 14.9545 7.47688 14.9545 7.10932H13.0983ZM14.2883 5.91934C14.9451 5.91934 15.4783 6.45157 15.4783 7.10932H13.6221C13.6221 7.47747 13.9207 7.77552 14.2883 7.77552V5.91934ZM15.4783 7.10944L15.4779 9.77925L13.6218 9.77902L13.6221 7.10921L15.4783 7.10944ZM15.4779 9.77913C15.4779 9.52168 15.27 9.31284 15.0113 9.31284V11.169C14.244 11.169 13.6218 10.5459 13.6218 9.77913H15.4779ZM15.0113 9.31284C14.8896 9.31284 14.7695 9.36214 14.6822 9.44926L15.9935 10.763C15.7323 11.0236 15.3807 11.169 15.0113 11.169V9.31284ZM14.6816 9.44988C14.5932 9.53825 14.5447 9.65886 14.5447 9.77913H16.4009C16.4009 10.1467 16.2569 10.4995 15.9941 10.7624L14.6816 9.44988ZM14.5447 9.7791L14.5449 4.36761L16.401 4.36767L16.4009 9.77916L14.5447 9.7791ZM14.5449 4.36764C14.5449 2.99091 13.5438 2.02243 12.495 2.02243V0.166247C14.7303 0.166247 16.401 2.13493 16.401 4.36764H14.5449ZM11.6026 0.839374L11.6026 0.83932L13.3874 1.34925L13.3874 1.34931L11.6026 0.839374Z" fill="#4CAF4F" mask="url(#path-1-inside-1_211_2339)"/>
<path d="M4.79272 12.1704L4.79269 12.1704L4.79272 12.1704ZM4.79272 12.1704C4.65611 12.0946 4.50802 12.0587 4.36207 12.0587C4.11775 12.0586 3.87924 12.1593 3.70937 12.3425L4.79272 12.1704ZM2.05611 16.2247L2.05608 16.2247L2.05611 16.2247ZM10.8124 17.6905C10.8124 17.6904 10.8125 17.6904 10.8125 17.6904L10.8124 17.6905ZM10.8126 17.6903C10.9328 17.6181 11.0161 17.5054 11.0501 17.3698C11.0501 17.3698 11.0501 17.3697 11.0502 17.3697L10.9928 17.3554L11.0502 17.3697C11.0839 17.2341 11.0634 17.0958 10.9911 16.9753L10.8126 17.6903ZM10.9367 14.0142L10.937 14.0142L10.9367 14.0142ZM3.48108 12.7012C3.49127 12.6828 3.50081 12.6657 3.50964 12.6497C3.54531 12.5855 3.56946 12.542 3.57916 12.5245L3.63191 12.5523C3.59932 12.611 3.56734 12.6686 3.53597 12.7252C3.5176 12.7182 3.49926 12.7103 3.48108 12.7012ZM4.75456 13.388L4.75459 13.3881L4.75456 13.388ZM11.4426 17.4678C11.4426 17.4679 11.4426 17.468 11.4426 17.4681L11.5003 17.4826C11.5641 17.2273 11.5245 16.9624 11.3889 16.7364L11.3613 16.753L11.4426 17.4678ZM11.0204 18.0372L11.0511 18.0884L11.0204 18.0372ZM7.77889 17.8229C7.77884 17.823 7.7788 17.823 7.77875 17.823L7.77889 17.8229Z" fill="#4CAF4F" stroke="#4CAF4F" stroke-width="0.928093"/>
<mask id="path-4-inside-2_211_2339" fill="white">
<path d="M22.8813 19.8225C22.398 20.6285 21.6032 21.1802 20.643 21.3764C19.6914 21.5704 18.6905 21.3914 17.8243 20.8721L13.1836 18.0882C12.9578 17.9527 12.7981 17.7375 12.7341 17.482C12.6706 17.227 12.7103 16.9622 12.8456 16.7365C12.9301 16.5955 13.0485 16.4843 13.1857 16.4021L13.1844 16.4013C12.9586 16.2658 12.7989 16.0507 12.7353 15.7955C12.6713 15.5403 12.711 15.2753 12.8464 15.0494C12.9337 14.9042 13.0532 14.7907 13.1897 14.7102C12.9916 14.5739 12.8489 14.376 12.7902 14.1412C12.7262 13.8858 12.7659 13.621 12.9014 13.3953C13.0367 13.1695 13.252 13.0099 13.5072 12.9461C13.5869 12.9261 13.6677 12.9163 13.7478 12.9163C13.9049 12.9164 14.059 12.9563 14.2007 13.0304C14.2094 12.8469 14.264 12.6667 14.3713 12.512C14.6653 12.0878 15.2543 11.9704 15.7132 12.2457L19.5134 14.5252L19.0236 13.6429C18.8356 13.3061 18.8425 12.8905 19.0418 12.5583C19.1389 12.3966 19.2776 12.2623 19.4434 12.1693C19.5797 12.0938 19.7273 12.0581 19.8729 12.0581C20.1856 12.0583 20.4893 12.2232 20.651 12.5153C21.2145 13.5306 22.2778 15.4454 22.3526 15.579C22.3685 15.6022 22.4165 15.671 22.4577 15.7296C22.4969 15.7852 22.5392 15.8383 22.583 15.8911C23.5319 17.0413 23.6463 18.5476 22.8813 19.8225L22.8813 19.8225ZM22.179 16.2249C22.1268 16.1617 22.0757 16.0973 22.0291 16.0309C21.8874 15.8298 21.8838 15.8246 21.8731 15.7719C21.7075 15.4979 21.3034 14.7704 20.1927 12.7694C20.0953 12.5937 19.8739 12.5296 19.6976 12.627C19.6109 12.6756 19.5412 12.7433 19.4903 12.8281C19.3873 12.9998 19.3834 13.2143 19.4807 13.3884L20.4446 15.1253C20.5022 15.2289 20.483 15.3582 20.3979 15.4405C20.3129 15.523 20.183 15.5374 20.081 15.4767L15.4437 12.6947C15.2251 12.5637 14.937 12.615 14.8018 12.8102C14.7241 12.9224 14.6993 13.0562 14.7318 13.1869C14.7617 13.3063 14.8366 13.407 14.9427 13.4706C14.943 13.4708 14.9432 13.4711 14.9435 13.4712L17.9756 15.2902C18.0996 15.3647 18.1397 15.5254 18.0653 15.6496C17.9908 15.7734 17.8303 15.8139 17.706 15.7393L13.9835 13.5062C13.8779 13.4429 13.7536 13.4242 13.6342 13.4542C13.5145 13.484 13.4138 13.5588 13.3503 13.6649C13.2867 13.7707 13.2683 13.8948 13.2979 14.0142C13.3277 14.1336 13.4027 14.2345 13.5086 14.2981L14.233 14.7325L17.2309 16.5312C17.3549 16.6057 17.3951 16.7664 17.3206 16.8905C17.2461 17.0143 17.0856 17.0547 16.9613 16.9802L13.9286 15.1607C13.7105 15.0295 13.4264 15.1007 13.2952 15.3191C13.2316 15.4251 13.2133 15.5492 13.2428 15.6686C13.2726 15.788 13.3476 15.8887 13.4537 15.9525L14.1972 16.3985L16.4864 17.772C16.6103 17.8464 16.6505 18.0071 16.5761 18.1313C16.5016 18.2551 16.3411 18.2958 16.2168 18.221L13.9276 16.8475C13.822 16.7842 13.6982 16.7655 13.5781 16.7956C13.4587 16.8254 13.3577 16.9002 13.2943 17.006C13.2308 17.1119 13.2123 17.2362 13.2418 17.3554C13.2716 17.4748 13.3466 17.5755 13.4527 17.6393L18.0934 20.4232C18.8465 20.875 19.7149 21.0314 20.5379 20.8635C21.3522 20.6972 22.025 20.232 22.432 19.5534C23.0897 18.4576 22.9951 17.2132 22.1793 16.2248L22.179 16.2249Z"/>
</mask>
<path d="M22.8813 19.8225C22.398 20.6285 21.6032 21.1802 20.643 21.3764C19.6914 21.5704 18.6905 21.3914 17.8243 20.8721L13.1836 18.0882C12.9578 17.9527 12.7981 17.7375 12.7341 17.482C12.6706 17.227 12.7103 16.9622 12.8456 16.7365C12.9301 16.5955 13.0485 16.4843 13.1857 16.4021L13.1844 16.4013C12.9586 16.2658 12.7989 16.0507 12.7353 15.7955C12.6713 15.5403 12.711 15.2753 12.8464 15.0494C12.9337 14.9042 13.0532 14.7907 13.1897 14.7102C12.9916 14.5739 12.8489 14.376 12.7902 14.1412C12.7262 13.8858 12.7659 13.621 12.9014 13.3953C13.0367 13.1695 13.252 13.0099 13.5072 12.9461C13.5869 12.9261 13.6677 12.9163 13.7478 12.9163C13.9049 12.9164 14.059 12.9563 14.2007 13.0304C14.2094 12.8469 14.264 12.6667 14.3713 12.512C14.6653 12.0878 15.2543 11.9704 15.7132 12.2457L19.5134 14.5252L19.0236 13.6429C18.8356 13.3061 18.8425 12.8905 19.0418 12.5583C19.1389 12.3966 19.2776 12.2623 19.4434 12.1693C19.5797 12.0938 19.7273 12.0581 19.8729 12.0581C20.1856 12.0583 20.4893 12.2232 20.651 12.5153C21.2145 13.5306 22.2778 15.4454 22.3526 15.579C22.3685 15.6022 22.4165 15.671 22.4577 15.7296C22.4969 15.7852 22.5392 15.8383 22.583 15.8911C23.5319 17.0413 23.6463 18.5476 22.8813 19.8225L22.8813 19.8225ZM22.179 16.2249C22.1268 16.1617 22.0757 16.0973 22.0291 16.0309C21.8874 15.8298 21.8838 15.8246 21.8731 15.7719C21.7075 15.4979 21.3034 14.7704 20.1927 12.7694C20.0953 12.5937 19.8739 12.5296 19.6976 12.627C19.6109 12.6756 19.5412 12.7433 19.4903 12.8281C19.3873 12.9998 19.3834 13.2143 19.4807 13.3884L20.4446 15.1253C20.5022 15.2289 20.483 15.3582 20.3979 15.4405C20.3129 15.523 20.183 15.5374 20.081 15.4767L15.4437 12.6947C15.2251 12.5637 14.937 12.615 14.8018 12.8102C14.7241 12.9224 14.6993 13.0562 14.7318 13.1869C14.7617 13.3063 14.8366 13.407 14.9427 13.4706C14.943 13.4708 14.9432 13.4711 14.9435 13.4712L17.9756 15.2902C18.0996 15.3647 18.1397 15.5254 18.0653 15.6496C17.9908 15.7734 17.8303 15.8139 17.706 15.7393L13.9835 13.5062C13.8779 13.4429 13.7536 13.4242 13.6342 13.4542C13.5145 13.484 13.4138 13.5588 13.3503 13.6649C13.2867 13.7707 13.2683 13.8948 13.2979 14.0142C13.3277 14.1336 13.4027 14.2345 13.5086 14.2981L14.233 14.7325L17.2309 16.5312C17.3549 16.6057 17.3951 16.7664 17.3206 16.8905C17.2461 17.0143 17.0856 17.0547 16.9613 16.9802L13.9286 15.1607C13.7105 15.0295 13.4264 15.1007 13.2952 15.3191C13.2316 15.4251 13.2133 15.5492 13.2428 15.6686C13.2726 15.788 13.3476 15.8887 13.4537 15.9525L14.1972 16.3985L16.4864 17.772C16.6103 17.8464 16.6505 18.0071 16.5761 18.1313C16.5016 18.2551 16.3411 18.2958 16.2168 18.221L13.9276 16.8475C13.822 16.7842 13.6982 16.7655 13.5781 16.7956C13.4587 16.8254 13.3577 16.9002 13.2943 17.006C13.2308 17.1119 13.2123 17.2362 13.2418 17.3554C13.2716 17.4748 13.3466 17.5755 13.4527 17.6393L18.0934 20.4232C18.8465 20.875 19.7149 21.0314 20.5379 20.8635C21.3522 20.6972 22.025 20.232 22.432 19.5534C23.0897 18.4576 22.9951 17.2132 22.1793 16.2248L22.179 16.2249Z" fill="#4CAF4F"/>
<path d="M22.8813 19.8225L22.5819 18.9441L24.9805 18.1263L23.6773 20.2998L22.8813 19.8225ZM20.643 21.3764L20.8288 22.2857L20.8284 22.2857L20.643 21.3764ZM17.8243 20.8721L17.347 21.668L17.3469 21.6679L17.8243 20.8721ZM13.1836 18.0882L13.661 17.2923L13.661 17.2923L13.1836 18.0882ZM12.7341 17.482L11.8338 17.7074L11.8335 17.7062L12.7341 17.482ZM12.8456 16.7365L13.6419 17.2133L13.6416 17.2137L12.8456 16.7365ZM13.1857 16.4021L13.6776 15.6151L14.9642 16.4192L13.6624 17.1985L13.1857 16.4021ZM13.1844 16.4013L13.6618 15.6054L13.6691 15.6098L13.6763 15.6143L13.1844 16.4013ZM12.7353 15.7955L13.6355 15.5699L13.6358 15.571L12.7353 15.7955ZM12.8464 15.0494L12.0504 14.5721L12.051 14.5712L12.8464 15.0494ZM13.1897 14.7102L13.7157 13.9456L14.9143 14.7701L13.6614 15.5095L13.1897 14.7102ZM12.7902 14.1412L13.6905 13.9157L13.6906 13.9161L12.7902 14.1412ZM12.9014 13.3953L13.6975 13.8723L13.6971 13.873L12.9014 13.3953ZM13.5072 12.9461L13.7332 13.8463L13.7322 13.8465L13.5072 12.9461ZM13.7478 12.9163V11.9882L13.7487 11.9882L13.7478 12.9163ZM14.2007 13.0304L15.1278 13.0743L15.059 14.5269L13.7705 13.8528L14.2007 13.0304ZM14.3713 12.512L15.134 13.0407L15.1339 13.0409L14.3713 12.512ZM15.7132 12.2457L15.2358 13.0416L15.2357 13.0415L15.7132 12.2457ZM19.5134 14.5252L20.3249 14.0747L22.0059 17.1025L19.036 15.3211L19.5134 14.5252ZM19.0236 13.6429L19.8341 13.1907L19.835 13.1924L19.0236 13.6429ZM19.0418 12.5583L18.2459 12.0809L18.2461 12.0805L19.0418 12.5583ZM19.4434 12.1693L18.9894 11.3598L18.9939 11.3573L19.4434 12.1693ZM19.8729 12.0581V11.13L19.8734 11.13L19.8729 12.0581ZM20.651 12.5153L19.8395 12.9657L19.839 12.9648L20.651 12.5153ZM22.3526 15.579L21.588 16.1051L21.5636 16.0696L21.5426 16.0321L22.3526 15.579ZM22.4577 15.7296L21.6992 16.2644L21.6985 16.2634L22.4577 15.7296ZM22.583 15.8911L23.2974 15.2987L23.2989 15.3005L22.583 15.8911ZM22.8813 19.8225L23.1808 20.701L20.7809 21.5191L22.0855 19.345L22.8813 19.8225ZM22.179 16.2249L22.2709 17.1484L21.7785 17.1974L21.4634 16.8159L22.179 16.2249ZM22.0291 16.0309L22.7877 15.4962L22.789 15.498L22.0291 16.0309ZM21.8731 15.7719L22.6674 15.2918L22.7508 15.4298L22.7828 15.5877L21.8731 15.7719ZM20.1927 12.7694L19.3812 13.2198L19.3811 13.2195L20.1927 12.7694ZM19.6976 12.627L19.2444 11.8171L19.2488 11.8147L19.6976 12.627ZM19.4903 12.8281L20.2863 13.3053L20.2862 13.3055L19.4903 12.8281ZM19.4807 13.3884L20.291 12.936L20.2921 12.9381L19.4807 13.3884ZM20.4446 15.1253L19.6332 15.5759L19.6331 15.5757L20.4446 15.1253ZM20.3979 15.4405L19.7513 14.7746L19.7526 14.7734L20.3979 15.4405ZM20.081 15.4767L19.6066 16.2744L19.6036 16.2726L20.081 15.4767ZM15.4437 12.6947L15.9208 11.8987L15.9211 11.8989L15.4437 12.6947ZM14.8018 12.8102L15.5648 13.3386L15.5647 13.3388L14.8018 12.8102ZM14.7318 13.1869L13.8314 13.412L13.8311 13.4106L14.7318 13.1869ZM14.9427 13.4706L14.5276 14.3007L14.4958 14.2848L14.4654 14.2665L14.9427 13.4706ZM14.9435 13.4712L15.3587 12.6412L15.3905 12.6571L15.421 12.6754L14.9435 13.4712ZM17.9756 15.2902L18.453 14.4944L18.4534 14.4946L17.9756 15.2902ZM18.0653 15.6496L18.8612 16.1269L18.8607 16.1278L18.0653 15.6496ZM17.706 15.7393L18.1834 14.9434L18.1837 14.9435L17.706 15.7393ZM13.9835 13.5062L14.4607 12.7101L14.461 12.7103L13.9835 13.5062ZM13.6342 13.4542L13.8605 14.3543L13.8587 14.3547L13.6342 13.4542ZM13.3503 13.6649L14.1468 14.1413L14.1456 14.1433L13.3503 13.6649ZM13.2979 14.0142L12.3975 14.2393L12.3969 14.237L13.2979 14.0142ZM13.5086 14.2981L13.0312 15.094L13.0307 15.0937L13.5086 14.2981ZM14.233 14.7325L14.7103 13.9366L14.7104 13.9367L14.233 14.7325ZM17.2309 16.5312L17.7084 15.7354L17.7087 15.7356L17.2309 16.5312ZM17.3206 16.8905L18.1165 17.3679L18.116 17.3688L17.3206 16.8905ZM16.9613 16.9802L16.4844 17.7764L16.4838 17.7761L16.9613 16.9802ZM13.9286 15.1607L13.4511 15.9566L13.4502 15.956L13.9286 15.1607ZM13.2952 15.3191L14.0909 15.797L14.0909 15.797L13.2952 15.3191ZM13.2428 15.6686L12.3424 15.8937L12.3418 15.8914L13.2428 15.6686ZM13.4537 15.9525L12.9762 16.7483L12.9754 16.7479L13.4537 15.9525ZM14.1972 16.3985L14.6747 15.6027L14.6747 15.6027L14.1972 16.3985ZM16.4864 17.772L16.9638 16.9761L16.9642 16.9763L16.4864 17.772ZM16.5761 18.1313L17.372 18.6086L17.3714 18.6096L16.5761 18.1313ZM16.2168 18.221L16.6942 17.4251L16.6952 17.4257L16.2168 18.221ZM13.9276 16.8475L14.4047 16.0515L14.4051 16.0517L13.9276 16.8475ZM13.5781 16.7956L13.353 15.8952L13.3531 15.8952L13.5781 16.7956ZM13.2943 17.006L12.4981 16.529L12.4984 16.5285L13.2943 17.006ZM13.2418 17.3554L12.3414 17.5805L12.3409 17.5785L13.2418 17.3554ZM13.4527 17.6393L12.9752 18.4352L12.9745 18.4347L13.4527 17.6393ZM18.0934 20.4232L18.5708 19.6273L18.5709 19.6274L18.0934 20.4232ZM20.5379 20.8635L20.7235 21.7729L20.7234 21.7729L20.5379 20.8635ZM22.432 19.5534L21.6361 19.076L21.6362 19.0757L22.432 19.5534ZM22.1793 16.2248L22.0873 15.3013L22.5799 15.2523L22.895 15.634L22.1793 16.2248ZM23.6773 20.2998C23.0538 21.3397 22.0315 22.04 20.8288 22.2857L20.4573 20.467C21.1749 20.3205 21.7423 19.9174 22.0854 19.3452L23.6773 20.2998ZM20.8284 22.2857C19.6398 22.5281 18.4036 22.3015 17.347 21.668L18.3016 20.0761C18.9774 20.4813 19.7429 20.6127 20.4576 20.467L20.8284 22.2857ZM17.3469 21.6679L12.7062 18.884L13.661 17.2923L18.3017 20.0762L17.3469 21.6679ZM12.7062 18.884C12.2697 18.6222 11.9576 18.2021 11.8338 17.7074L13.6344 17.2567C13.6369 17.2667 13.6404 17.273 13.6436 17.2772C13.6467 17.2814 13.6518 17.2867 13.661 17.2923L12.7062 18.884ZM11.8335 17.7062C11.7105 17.2121 11.7883 16.6951 12.0496 16.2593L13.6416 17.2137C13.636 17.223 13.634 17.2303 13.6332 17.2356C13.6324 17.2409 13.6323 17.2481 13.6347 17.2579L11.8335 17.7062ZM12.0494 16.2597C12.2215 15.9723 12.4566 15.7569 12.7091 15.6058L13.6624 17.1985C13.6511 17.2052 13.6451 17.2105 13.6427 17.2128C13.6405 17.215 13.6408 17.2151 13.6419 17.2133L12.0494 16.2597ZM12.6938 17.1891L12.6925 17.1883L13.6763 15.6143L13.6776 15.6151L12.6938 17.1891ZM12.707 17.1972C12.2708 16.9355 11.9582 16.5152 11.8347 16.02L13.6358 15.571C13.6381 15.5804 13.6414 15.5863 13.6445 15.5904C13.6475 15.5945 13.6526 15.5999 13.6618 15.6054L12.707 17.1972ZM11.835 16.0211C11.7109 15.526 11.789 15.0083 12.0504 14.5721L13.6424 15.5266C13.6368 15.536 13.6348 15.5433 13.634 15.5484C13.6332 15.5535 13.6331 15.5604 13.6355 15.5699L11.835 16.0211ZM12.051 14.5712C12.2223 14.2862 12.4565 14.0653 12.718 13.9109L13.6614 15.5095C13.6553 15.5131 13.6512 15.5164 13.6485 15.5191C13.646 15.5216 13.6439 15.5242 13.6419 15.5275L12.051 14.5712ZM12.6637 15.4749C12.2888 15.217 12.0061 14.8316 11.8898 14.3662L13.6906 13.9161C13.6917 13.9204 13.6931 13.9236 13.6955 13.9269C13.6982 13.9306 13.704 13.9375 13.7157 13.9456L12.6637 15.4749ZM11.8899 14.3667C11.7659 13.8716 11.8438 13.3538 12.1056 12.9176L13.6971 13.873C13.6916 13.8821 13.6897 13.8891 13.6889 13.8941C13.6882 13.8991 13.688 13.9059 13.6905 13.9157L11.8899 14.3667ZM12.1052 12.9183C12.3672 12.4811 12.788 12.1693 13.2821 12.0457L13.7322 13.8465C13.7223 13.849 13.7162 13.8525 13.712 13.8555C13.7079 13.8586 13.7028 13.8635 13.6975 13.8723L12.1052 12.9183ZM13.2812 12.046C13.435 12.0074 13.5917 11.9882 13.7478 11.9882V13.8444C13.7438 13.8444 13.7388 13.8449 13.7332 13.8463L13.2812 12.046ZM13.7487 11.9882C14.064 11.9885 14.3646 12.0688 14.6309 12.2081L13.7705 13.8528C13.7616 13.8482 13.7553 13.8461 13.7518 13.8452C13.7484 13.8444 13.7469 13.8444 13.7468 13.8444L13.7487 11.9882ZM13.2736 12.9865C13.2896 12.649 13.3914 12.2964 13.6086 11.9831L15.1339 13.0409C15.1366 13.037 15.1292 13.0448 15.1278 13.0743L13.2736 12.9865ZM13.6085 11.9833C14.1963 11.1352 15.336 10.937 16.1907 11.4499L15.2357 13.0415C15.2087 13.0253 15.1821 13.0227 15.1613 13.0268C15.141 13.0309 15.1354 13.0387 15.134 13.0407L13.6085 11.9833ZM16.1906 11.4498L19.9908 13.7293L19.036 15.3211L15.2358 13.0416L16.1906 11.4498ZM18.702 14.9757L18.2122 14.0934L19.835 13.1924L20.3249 14.0747L18.702 14.9757ZM18.2131 14.0951C17.8626 13.4668 17.8765 12.6968 18.2459 12.0809L19.8377 13.0356C19.8085 13.0843 19.8087 13.1453 19.8341 13.1907L18.2131 14.0951ZM18.2461 12.0805C18.4271 11.7791 18.6842 11.531 18.9894 11.3598L19.8974 12.9788C19.871 12.9935 19.8506 13.0141 19.8375 13.036L18.2461 12.0805ZM18.9939 11.3573C19.2716 11.2036 19.5745 11.13 19.8729 11.13V12.9862C19.8761 12.9862 19.8798 12.9858 19.8836 12.9848C19.8877 12.9838 19.8909 12.9824 19.8929 12.9813L18.9939 11.3573ZM19.8734 11.13C20.5076 11.1303 21.1304 11.4649 21.463 12.0659L19.839 12.9648C19.8405 12.9674 19.8429 12.9709 19.8463 12.9743C19.8496 12.9776 19.8529 12.9801 19.8559 12.9818C19.8612 12.9848 19.8664 12.9862 19.8724 12.9862L19.8734 11.13ZM21.4625 12.0649C22.0267 13.0814 23.0888 14.9941 23.1626 15.126L21.5426 16.0321C21.4668 15.8967 20.4023 13.9798 19.8395 12.9657L21.4625 12.0649ZM23.1172 15.053C23.1303 15.0721 23.1761 15.1378 23.2169 15.1958L21.6985 16.2634C21.6569 16.2043 21.6067 16.1323 21.588 16.1051L23.1172 15.053ZM23.2162 15.1948C23.2354 15.222 23.2605 15.2541 23.2974 15.2987L21.8686 16.4835C21.818 16.4225 21.7584 16.3483 21.6992 16.2644L23.2162 15.1948ZM23.2989 15.3005C24.4969 16.7527 24.6452 18.6867 23.6771 20.3001L22.0855 19.345C22.6474 18.4086 22.5669 17.33 21.8671 16.4817L23.2989 15.3005ZM22.5818 18.9441L22.5819 18.9441L23.1808 20.701L23.1808 20.701L22.5818 18.9441ZM21.4634 16.8159C21.4048 16.7449 21.3361 16.6591 21.2692 16.5637L22.789 15.498C22.8153 15.5355 22.8489 15.5786 22.8945 15.6338L21.4634 16.8159ZM21.2705 16.5655C21.212 16.4826 21.1492 16.3946 21.1075 16.3256C21.0797 16.2794 21.0423 16.212 21.0108 16.1261C20.9801 16.0425 20.9665 15.9709 20.9635 15.9561L22.7828 15.5877C22.7851 15.5993 22.7759 15.548 22.7533 15.4865C22.7299 15.4227 22.7043 15.379 22.6964 15.3659C22.6926 15.3597 22.6912 15.3576 22.6941 15.362C22.6969 15.3662 22.7018 15.3736 22.7102 15.3856C22.7275 15.4107 22.7513 15.4445 22.7877 15.4962L21.2705 16.5655ZM21.0789 16.252C20.9015 15.9586 20.4842 15.2069 19.3812 13.2198L21.0042 12.3189C22.1227 14.334 22.5135 15.0371 22.6674 15.2918L21.0789 16.252ZM19.3811 13.2195C19.5314 13.4905 19.8735 13.5902 20.1465 13.4393L19.2488 11.8147C19.8743 11.469 20.6592 11.697 21.0043 12.3192L19.3811 13.2195ZM20.1508 13.4369C20.2053 13.4064 20.2538 13.3595 20.2863 13.3053L18.6943 12.3508C18.8285 12.1271 19.0164 11.9447 19.2444 11.8171L20.1508 13.4369ZM20.2862 13.3055C20.3527 13.1947 20.3572 13.0545 20.291 12.936L18.6703 13.8409C18.4096 13.374 18.422 12.8049 18.6944 12.3507L20.2862 13.3055ZM20.2921 12.9381L21.2561 14.6749L19.6331 15.5757L18.6692 13.8388L20.2921 12.9381ZM21.256 14.6747C21.5173 15.1452 21.4305 15.7329 21.0431 16.1076L19.7526 14.7734C19.5355 14.9834 19.4871 15.3127 19.6332 15.5759L21.256 14.6747ZM21.0444 16.1063C20.654 16.4855 20.0636 16.5462 19.6066 16.2744L20.5555 14.6791C20.3025 14.5286 19.9719 14.5605 19.7513 14.7747L21.0444 16.1063ZM19.6036 16.2726L14.9662 13.4906L15.9211 11.8989L20.5585 14.6809L19.6036 16.2726ZM14.9665 13.4908C15.0571 13.545 15.1593 13.5609 15.2553 13.5437C15.3512 13.5265 15.475 13.4683 15.5648 13.3386L14.0388 12.2818C14.4856 11.6367 15.3349 11.5475 15.9208 11.8987L14.9665 13.4908ZM15.5647 13.3388C15.6371 13.2343 15.6651 13.0944 15.6325 12.9631L13.8311 13.4106C13.7335 13.0179 13.8111 12.6104 14.039 12.2816L15.5647 13.3388ZM15.6322 12.9618C15.6018 12.8402 15.5232 12.7365 15.42 12.6746L14.4654 14.2665C14.15 14.0774 13.9215 13.7723 13.8314 13.412L15.6322 12.9618ZM15.3578 12.6405C15.4417 12.6825 15.5034 12.7292 15.5424 12.7622C15.5616 12.7785 15.5765 12.7924 15.5854 12.801C15.59 12.8054 15.5937 12.809 15.5959 12.8112C15.597 12.8123 15.5979 12.8132 15.5985 12.8137C15.5987 12.814 15.599 12.8143 15.5991 12.8144C15.5992 12.8145 15.5992 12.8145 15.5993 12.8146C15.5993 12.8146 15.5993 12.8146 15.5993 12.8146C15.5993 12.8146 15.5993 12.8146 15.5993 12.8146C15.5993 12.8146 15.5993 12.8146 15.5993 12.8146C15.5996 12.8149 15.5979 12.8132 15.596 12.8113C15.5938 12.8091 15.5902 12.8055 15.5856 12.8012C15.5767 12.7927 15.5619 12.7788 15.5428 12.7626C15.5039 12.7297 15.4423 12.683 15.3587 12.6412L14.5284 14.3013C14.4445 14.2594 14.3829 14.2126 14.3438 14.1796C14.3246 14.1633 14.3097 14.1494 14.3008 14.1408C14.2962 14.1364 14.2926 14.1329 14.2904 14.1307C14.2892 14.1295 14.2883 14.1286 14.2878 14.1281C14.2875 14.1278 14.2872 14.1276 14.2871 14.1274C14.287 14.1274 14.287 14.1273 14.2869 14.1273C14.2869 14.1273 14.2869 14.1272 14.2869 14.1272C14.2869 14.1272 14.2869 14.1272 14.2869 14.1272C14.2869 14.1272 14.2869 14.1272 14.2869 14.1272C14.2866 14.1269 14.2883 14.1286 14.2903 14.1306C14.2924 14.1327 14.2961 14.1363 14.3006 14.1406C14.3095 14.1492 14.3243 14.163 14.3434 14.1792C14.3823 14.2122 14.4439 14.2588 14.5276 14.3007L15.3578 12.6405ZM15.421 12.6754L18.453 14.4944L17.4981 16.0861L14.4661 14.2671L15.421 12.6754ZM18.4534 14.4946C19.0168 14.8329 19.1991 15.5635 18.8612 16.1269L17.2694 15.1722C17.0804 15.4873 17.1823 15.8965 17.4978 16.0859L18.4534 14.4946ZM18.8607 16.1278C18.5231 16.6891 17.7934 16.8742 17.2283 16.535L18.1837 14.9435C17.8672 14.7535 17.4585 14.8576 17.2699 15.1713L18.8607 16.1278ZM17.2285 16.5351L13.5061 14.3021L14.461 12.7103L18.1834 14.9434L17.2285 16.5351ZM13.5064 14.3022C13.6106 14.3647 13.7392 14.3848 13.8605 14.3543L13.408 12.5541C13.768 12.4636 14.1452 12.521 14.4607 12.7101L13.5064 14.3022ZM13.8587 14.3547C13.9793 14.3247 14.084 14.2463 14.1468 14.1413L12.5539 13.1885C12.7436 12.8713 13.0497 12.6434 13.4097 12.5537L13.8587 14.3547ZM14.1456 14.1433C14.2094 14.0374 14.2279 13.9092 14.1988 13.7915L12.3969 14.237C12.3088 13.8805 12.3641 13.504 12.5551 13.1865L14.1456 14.1433ZM14.1982 13.7891C14.168 13.6682 14.09 13.5646 13.9865 13.5025L13.0307 15.0937C12.7154 14.9043 12.4874 14.599 12.3975 14.2393L14.1982 13.7891ZM13.9859 13.5022L14.7103 13.9366L13.7556 15.5285L13.0312 15.094L13.9859 13.5022ZM14.7104 13.9367L17.7084 15.7354L16.7534 17.3271L13.7555 15.5284L14.7104 13.9367ZM17.7087 15.7356C18.2721 16.0739 18.4544 16.8045 18.1165 17.3679L16.5247 16.4132C16.3357 16.7282 16.4376 17.1374 16.7531 17.3269L17.7087 15.7356ZM18.116 17.3688C17.7779 17.931 17.0483 18.1142 16.4844 17.7764L17.4382 16.184C17.1229 15.9952 16.7144 16.0977 16.5252 16.4123L18.116 17.3688ZM16.4838 17.7761L13.4511 15.9566L14.4061 14.3649L17.4388 16.1844L16.4838 17.7761ZM13.4502 15.956C13.6731 16.0901 13.959 16.0166 14.0909 15.797L12.4996 14.8413C12.8939 14.1848 13.7479 13.969 14.407 14.3654L13.4502 15.956ZM14.0909 15.797C14.1541 15.6916 14.1729 15.5638 14.1437 15.4458L12.3418 15.8914C12.2536 15.5347 12.3091 15.1585 12.4996 14.8413L14.0909 15.797ZM14.1432 15.4435C14.1127 15.3218 14.0342 15.2186 13.9319 15.1571L12.9754 16.7479C12.6609 16.5588 12.4325 16.2541 12.3424 15.8937L14.1432 15.4435ZM13.9311 15.1566L14.6747 15.6027L13.7198 17.1944L12.9762 16.7483L13.9311 15.1566ZM14.6747 15.6027L16.9638 16.9761L16.0089 18.5678L13.7197 17.1944L14.6747 15.6027ZM16.9642 16.9763C17.5276 17.3147 17.7099 18.0453 17.372 18.6086L15.7802 17.6539C15.5912 17.969 15.6931 18.3782 16.0086 18.5676L16.9642 16.9763ZM17.3714 18.6096C17.0344 19.17 16.3046 19.357 15.7383 19.0163L16.6952 17.4257C16.3775 17.2346 15.9688 17.3402 15.7807 17.653L17.3714 18.6096ZM15.7393 19.0168L13.4501 17.6434L14.4051 16.0517L16.6942 17.4251L15.7393 19.0168ZM13.4505 17.6436C13.555 17.7062 13.6836 17.7258 13.8032 17.6959L13.3531 15.8952C13.7127 15.8053 14.089 15.8622 14.4047 16.0515L13.4505 17.6436ZM13.8032 17.6959C13.9226 17.6661 14.0269 17.5887 14.0901 17.4835L12.4984 16.5285C12.6885 16.2116 12.9948 15.9847 13.353 15.8952L13.8032 17.6959ZM14.0904 17.4829C14.1528 17.3788 14.1722 17.2515 14.1427 17.1324L12.3409 17.5785C12.2524 17.2209 12.3088 16.845 12.4981 16.529L14.0904 17.4829ZM14.1422 17.1303C14.1118 17.0087 14.0332 16.9054 13.9309 16.8439L12.9745 18.4347C12.6599 18.2456 12.4315 17.941 12.3414 17.5805L14.1422 17.1303ZM13.9301 16.8434L18.5708 19.6273L17.6159 21.2191L12.9752 18.4352L13.9301 16.8434ZM18.5709 19.6274C19.1349 19.9657 19.7679 20.0734 20.3523 19.9542L20.7234 21.7729C19.6619 21.9895 18.558 21.7843 17.6159 21.2191L18.5709 19.6274ZM20.3522 19.9542C20.9262 19.837 21.3704 19.519 21.6361 19.076L23.2279 20.0308C22.6795 20.945 21.7783 21.5575 20.7235 21.7729L20.3522 19.9542ZM21.6362 19.0757C22.0908 18.3185 22.0301 17.5021 21.4635 16.8156L22.895 15.634C23.9601 16.9244 24.0887 18.5967 23.2277 20.031L21.6362 19.0757ZM22.2712 17.1484L22.2709 17.1484L22.087 15.3013L22.0873 15.3013L22.2712 17.1484Z" fill="#4CAF4F" mask="url(#path-4-inside-2_211_2339)"/>
</svg>
