<svg width="46" height="40" viewBox="0 0 46 40" fill="none" xmlns="http://www.w3.org/2000/svg">
<path d="M45.6658 27.0005C45.6658 33.9203 40.0562 39.5298 33.1365 39.5298L14.3426 39.5298C12.4205 39.5298 10.8623 37.9716 10.8623 36.0494L10.8623 12.3831C10.8623 8.53878 13.9787 5.42238 17.823 5.42238L42.1854 5.42238C44.1076 5.42238 45.6658 6.98059 45.6658 8.90273L45.6658 27.0005Z" fill="#E8F5E9"/>
<path d="M20.128 17.0081C19.9604 17.0081 19.8048 16.962 19.6666 16.8879V16.8899C19.6666 17.1535 19.5641 17.4012 19.3781 17.5867C19.1921 17.7726 18.9447 17.8751 18.6813 17.8751C18.5112 17.8751 18.3536 17.8279 18.2139 17.7518C18.1998 17.993 18.1034 18.2185 17.9313 18.3907C17.7454 18.5767 17.4979 18.6792 17.2343 18.6792C16.7107 18.6792 16.2855 18.2676 16.2548 17.7516C16.0928 17.8392 15.9096 17.8851 15.7207 17.873C15.2056 17.8392 14.8022 17.3942 14.8022 16.8595V12.4279L14.2975 13.3021C14.1053 13.6365 13.7456 13.8441 13.3582 13.8441C13.1694 13.8441 12.983 13.7946 12.8178 13.7C12.6122 13.5807 12.4651 13.3894 12.4039 13.1604C12.3424 12.9313 12.3742 12.6917 12.4931 12.4864C12.4933 12.4864 14.1442 9.62748 14.2449 9.45187C14.2569 9.42547 14.291 9.34889 14.32 9.28362C14.3477 9.2213 14.3715 9.15734 14.3943 9.09306C14.8922 7.6875 16.1249 6.8144 17.6117 6.8144C19.5424 6.8144 21.1131 8.51761 21.1131 10.6112L21.1132 16.0227C21.1132 16.286 21.0109 16.5335 20.8251 16.7196C20.6391 16.9056 20.3917 17.0081 20.128 17.0081L20.128 17.0081ZM17.6117 7.33794C16.3342 7.33794 15.316 8.05953 14.8878 9.26815C14.8604 9.3449 14.8319 9.42164 14.7986 9.49643C14.702 9.71306 14.702 9.71306 14.6748 9.74422L14.6712 9.7411C14.5364 9.99545 14.1359 10.689 12.9464 12.7484C12.8976 12.8329 12.8846 12.9309 12.9095 13.0247C12.9348 13.1185 12.9953 13.1976 13.0791 13.246C13.3392 13.3954 13.6954 13.2989 13.8436 13.0406L14.8373 11.3203C14.8966 11.2178 15.0167 11.1675 15.1318 11.1987C15.2463 11.2293 15.3258 11.3331 15.3258 11.4515V16.8597C15.3258 17.1148 15.5183 17.3351 15.755 17.3506C15.8914 17.3579 16.0187 17.3121 16.1143 17.2167C16.2012 17.1297 16.2491 17.014 16.2491 16.8902V13.3532C16.2491 13.2085 16.3664 13.0913 16.511 13.0913C16.6556 13.0913 16.7729 13.2084 16.7729 13.3532L16.7727 17.6941C16.7727 17.9486 16.9799 18.1557 17.2344 18.1557C17.358 18.1557 17.4741 18.1079 17.5612 18.0209C17.6481 17.9339 17.696 17.8178 17.696 17.6941V13.3532C17.696 13.2085 17.8131 13.0913 17.9579 13.0913C18.1025 13.0913 18.2198 13.2084 18.2198 13.3532L18.2196 16.8495V16.8901C18.2196 17.1445 18.4268 17.3516 18.6814 17.3516C18.8049 17.3516 18.9207 17.3036 19.0083 17.2163C19.0952 17.1296 19.1431 17.0138 19.1431 16.89V13.353C19.1431 13.2083 19.2602 13.0911 19.405 13.0911C19.5496 13.0911 19.6669 13.2082 19.6669 13.353L19.6665 16.0228C19.6665 16.2775 19.8737 16.4846 20.128 16.4846C20.2518 16.4846 20.3676 16.4365 20.4545 16.3498C20.5418 16.2625 20.5895 16.1464 20.5895 16.0228L20.5896 10.6113C20.5896 8.80657 19.2538 7.33799 17.6117 7.33799L17.6117 7.33794Z" fill="#103E13"/>
<path d="M9.83834 20.7693L13.6387 18.4894C14.0969 18.2142 14.6864 18.3312 14.9803 18.7557C15.0876 18.9104 15.1423 19.0906 15.1509 19.2741C15.2925 19.2002 15.4467 19.16 15.6036 19.16C15.684 19.16 15.7647 19.17 15.8444 19.1898C16.0997 19.2536 16.3149 19.4132 16.4502 19.6388C16.5856 19.8648 16.6252 20.1297 16.5614 20.3847C16.5025 20.6207 16.359 20.8193 16.1594 20.9556C16.299 21.0379 16.4193 21.1502 16.505 21.2932C16.6404 21.5192 16.6799 21.7839 16.6163 22.0393C16.5525 22.2943 16.3929 22.5094 16.167 22.6451L16.1657 22.6459C16.3028 22.728 16.421 22.8392 16.5056 22.9801C16.6412 23.2061 16.6808 23.4709 16.617 23.7262C16.553 23.9814 16.3934 24.1966 16.1678 24.332L11.5275 27.1158C10.6615 27.6352 9.66028 27.8145 8.7088 27.6201C7.7488 27.424 6.95374 26.8722 6.47032 26.0663C5.70528 24.7912 5.81993 23.2848 6.76895 22.135C6.81241 22.0826 6.85521 22.0291 6.89408 21.9737C6.93524 21.9151 6.98329 21.8462 6.99969 21.8226C7.09792 21.6472 8.7008 18.7592 8.70063 18.7596C8.86249 18.4675 9.16588 18.3022 9.47877 18.3023C9.62472 18.3023 9.77281 18.3383 9.90942 18.414C10.0744 18.5062 10.213 18.6405 10.3099 18.8024C10.5091 19.1344 10.5162 19.55 10.3286 19.8863L9.83834 20.7693ZM9.86114 19.0716C9.8103 18.9868 9.74044 18.9192 9.655 18.8714C9.47838 18.7736 9.25601 18.8372 9.15877 19.0132C8.01182 21.0795 7.62084 21.7837 7.46996 22.0343L7.4734 22.0351C7.46077 22.0771 7.46077 22.0771 7.32269 22.2744C7.27579 22.3411 7.22479 22.4052 7.17281 22.4684C6.35676 23.4571 6.262 24.7013 6.91911 25.7969C7.32614 26.4755 7.99884 26.9408 8.81338 27.107C9.63678 27.2745 10.5046 27.1187 11.2579 26.6667L15.8986 23.8828C16.0045 23.8194 16.0793 23.7185 16.1091 23.599C16.139 23.4796 16.1205 23.3554 16.0568 23.2495C15.926 23.0314 15.6418 22.9597 15.4236 23.0911L13.1343 24.4645C13.0103 24.539 12.8493 24.499 12.775 24.3748C12.7006 24.2508 12.7407 24.09 12.8647 24.0155L15.1542 22.6421L15.8978 22.196C16.0037 22.1324 16.0786 22.0315 16.1085 21.9123C16.1383 21.7927 16.1198 21.6684 16.0562 21.5627C15.9251 21.3444 15.6409 21.2734 15.423 21.4043L12.39 23.2238C12.2657 23.2984 12.1051 23.258 12.0307 23.134C11.9562 23.0101 11.9965 22.8492 12.1204 22.7747L15.8428 20.5417C15.9488 20.478 16.0235 20.3774 16.0534 20.2578C16.0832 20.1384 16.0647 20.0143 16.0012 19.9083C15.9378 19.8026 15.8369 19.7278 15.7174 19.6979C15.5972 19.6681 15.4735 19.6866 15.3679 19.7499L14.6788 20.1633C14.6786 20.1633 14.6786 20.1635 14.6785 20.1635H14.6783L11.6454 21.983C11.5211 22.0578 11.3604 22.0175 11.2861 21.8933C11.2117 21.7693 11.252 21.6085 11.3758 21.534L14.4089 19.7145C14.5148 19.6509 14.5898 19.55 14.6196 19.4308C14.6524 19.2999 14.6275 19.1661 14.5497 19.0539C14.4149 18.859 14.1266 18.8071 13.908 18.9385L9.27071 21.7205C9.16919 21.7811 9.03915 21.7664 8.95404 21.6842C8.86876 21.6019 8.84957 21.4725 8.90697 21.369L9.87126 19.6317C9.96801 19.458 9.96424 19.2435 9.86109 19.0717L9.86114 19.0716Z" fill="#103E13"/>
<path d="M27.998 26.0662C27.5147 26.8722 26.7199 27.4239 25.7597 27.62C24.8081 27.814 23.8072 27.6351 22.941 27.1157L18.3003 24.3318C18.0745 24.1963 17.9148 23.9812 17.8508 23.7257C17.7873 23.4707 17.827 23.2058 17.9623 22.9802C18.0468 22.8391 18.1652 22.7279 18.3024 22.6458L18.3011 22.645C18.0753 22.5095 17.9156 22.2943 17.852 22.0392C17.788 21.784 17.8277 21.519 17.9631 21.293C18.0504 21.1479 18.1699 21.0344 18.3064 20.9539C18.1083 20.8176 17.9656 20.6197 17.9069 20.3848C17.8429 20.1295 17.8826 19.8646 18.0181 19.6389C18.1534 19.4131 18.3687 19.2536 18.6239 19.1898C18.7036 19.1698 18.7844 19.1599 18.8645 19.1599C19.0216 19.1601 19.1757 19.2 19.3174 19.2741C19.3261 19.0906 19.3807 18.9103 19.488 18.7557C19.782 18.3315 20.371 18.214 20.8299 18.4894L24.6301 20.7689L24.1403 19.8866C23.9523 19.5497 23.9592 19.1342 24.1585 18.8019C24.2556 18.6402 24.3943 18.5059 24.5601 18.4129C24.6964 18.3375 24.844 18.3017 24.9896 18.3017C25.3023 18.3019 25.606 18.4669 25.7677 18.759C26.3312 19.7743 27.3945 21.689 27.4693 21.8227C27.4852 21.8458 27.5332 21.9147 27.5744 21.9732C27.6136 22.0288 27.6559 22.082 27.6997 22.1348C28.6486 23.285 28.763 24.7913 27.998 26.0662L27.998 26.0662ZM27.2957 22.4685C27.2435 22.4054 27.1924 22.3409 27.1458 22.2745C27.0041 22.0735 27.0005 22.0682 26.9898 22.0156C26.8242 21.7415 26.4201 21.0141 25.3094 19.013C25.212 18.8374 24.9906 18.7733 24.8143 18.8707C24.7276 18.9192 24.6579 18.9869 24.607 19.0717C24.504 19.2434 24.5001 19.4579 24.5974 19.6321L25.5613 21.3689C25.6189 21.4726 25.5997 21.6018 25.5146 21.6841C25.4296 21.7666 25.2997 21.7811 25.1977 21.7204L20.5604 18.9384C20.3418 18.8074 20.0537 18.8587 19.9185 19.0538C19.8408 19.166 19.816 19.2998 19.8485 19.4305C19.8784 19.5499 19.9533 19.6506 20.0594 19.7142C20.0597 19.7144 20.0599 19.7147 20.0602 19.7149L23.0923 21.5339C23.2163 21.6083 23.2564 21.7691 23.182 21.8932C23.1075 22.017 22.947 22.0575 22.8227 21.9829L19.1002 19.7498C18.9946 19.6865 18.8703 19.6678 18.7509 19.6979C18.6312 19.7277 18.5305 19.8025 18.467 19.9086C18.4034 20.0144 18.385 20.1385 18.4146 20.2579C18.4444 20.3773 18.5194 20.4781 18.6253 20.5418L19.3497 20.9762L22.3476 22.7749C22.4716 22.8493 22.5118 23.01 22.4373 23.1342C22.3628 23.258 22.2023 23.2983 22.078 23.2239L19.0453 21.4044C18.8272 21.2732 18.5431 21.3444 18.4119 21.5628C18.3483 21.6687 18.33 21.7929 18.3595 21.9123C18.3893 22.0316 18.4643 22.1323 18.5704 22.1961L19.3139 22.6422L21.6031 24.0156C21.727 24.0901 21.7672 24.2508 21.6928 24.3749C21.6183 24.4988 21.4578 24.5394 21.3335 24.4646L19.0443 23.0912C18.9387 23.0279 18.8149 23.0092 18.6948 23.0392C18.5754 23.0691 18.4744 23.1438 18.411 23.2496C18.3475 23.3555 18.329 23.4799 18.3585 23.5991C18.3883 23.7185 18.4633 23.8192 18.5694 23.8829L23.2101 26.6669C23.9632 27.1187 24.8316 27.2751 25.6546 27.1072C26.4689 26.9409 27.1417 26.4756 27.5487 25.797C28.2064 24.7012 28.1118 23.4569 27.296 22.4685L27.2957 22.4685Z" fill="#103E13"/>
</svg>
