<svg width="46" height="40" viewBox="0 0 46 40" fill="none" xmlns="http://www.w3.org/2000/svg">
<path d="M45.2445 27.1778C45.2445 34.0975 39.635 39.707 32.7153 39.707L13.9214 39.707C11.9992 39.707 10.441 38.1488 10.441 36.2267L10.441 12.5603C10.441 8.71603 13.5574 5.59963 17.4017 5.59963L41.7642 5.59963C43.6863 5.59963 45.2445 7.15783 45.2445 9.07998L45.2445 27.1778Z" fill="#E8F5E9"/>
<path d="M16.6987 7.68774C14.2129 7.68774 12.1892 9.72993 12.1892 12.2264C12.1892 13.8056 13.0001 15.2 14.2247 16.0128C12.7457 16.5074 11.4659 17.4317 10.5272 18.6409C10.0082 18.2417 9.42835 17.9207 8.80322 17.6906C9.75117 16.9869 10.3706 15.8564 10.3706 14.5858C10.3706 12.4685 8.65826 10.7353 6.55382 10.7353C4.44938 10.7353 2.737 12.4685 2.737 14.5858C2.737 15.8571 3.35699 16.9881 4.30574 17.6919C1.79391 18.6188 0 21.0455 0 23.9015V25.9077C0.000257091 26.0606 0.0614328 26.2071 0.169903 26.3148C0.278372 26.4228 0.425145 26.4829 0.578083 26.4824H9.37986C9.40119 26.4847 9.42253 26.486 9.44386 26.4858H23.954C23.9754 26.486 23.9969 26.4847 24.018 26.4824H32.8205C33.1369 26.4811 33.3931 26.2243 33.3939 25.9077V23.9015C33.3939 21.0455 31.6031 18.6188 29.0926 17.6916C30.0413 16.9881 30.6613 15.8568 30.6613 14.5855C30.6613 12.4682 28.9489 10.735 26.8445 10.735C24.7401 10.735 23.0277 12.4682 23.0277 14.5855C23.0277 15.8561 23.6474 16.9868 24.5954 17.6904C23.969 17.9209 23.3888 18.243 22.8691 18.6432C21.9309 17.4333 20.6529 16.5077 19.1739 16.0128C20.3981 15.2 21.2094 13.8056 21.2094 12.2264C21.2094 9.72993 19.1847 7.68774 16.6988 7.68774H16.6987ZM16.6987 8.83929C18.5579 8.83929 20.0567 10.3481 20.0567 12.2264C20.0567 14.0899 18.5812 15.5841 16.7426 15.608C16.728 15.608 16.7136 15.606 16.6987 15.606C16.6838 15.606 16.6696 15.608 16.6547 15.608C14.8161 15.5844 13.3417 14.09 13.3417 12.2264C13.3417 10.3479 14.8392 8.83929 16.6984 8.83929H16.6987ZM6.55389 11.8867C8.02905 11.8867 9.21916 13.084 9.21916 14.5857C9.21916 16.0773 8.04445 17.2695 6.58317 17.2857C6.5734 17.2857 6.56389 17.2846 6.55387 17.2846C6.5441 17.2846 6.53459 17.2857 6.52456 17.2857C5.06328 17.2695 3.88857 16.0771 3.88857 14.5857C3.88857 13.0841 5.07868 11.8867 6.55384 11.8867H6.55389ZM26.8442 11.8867C28.3193 11.8867 29.5094 13.084 29.5094 14.5857C29.5094 16.0773 28.3347 17.2695 26.8734 17.2857C26.8637 17.2857 26.8542 17.2846 26.8441 17.2846C26.8344 17.2846 26.8249 17.2857 26.8148 17.2857C25.3536 17.2695 24.1788 16.0771 24.1788 14.5857C24.1788 13.0841 25.3689 11.8867 26.8441 11.8867H26.8442ZM16.6546 16.7595C16.6693 16.7598 16.6837 16.7616 16.6986 16.7616C16.7132 16.7616 16.7276 16.7595 16.7425 16.7595C20.4298 16.7832 23.3807 19.7595 23.3807 23.4852L23.3804 25.3339H10.0172V23.4852C10.0172 19.7591 12.9673 16.7832 16.6541 16.7595H16.6546ZM6.5098 18.4385C6.52445 18.4388 6.53884 18.4406 6.55375 18.4406C6.56866 18.4406 6.5828 18.4385 6.59771 18.4385C7.84487 18.4486 8.98306 18.8786 9.88936 19.598C9.24084 20.7455 8.8658 22.07 8.8658 23.4855V25.3298H1.15108V23.9014C1.15108 20.8734 3.53183 18.4622 6.50966 18.4383L6.5098 18.4385ZM26.8001 18.4385C26.815 18.4388 26.8291 18.4406 26.844 18.4406C26.8589 18.4406 26.8731 18.4385 26.888 18.4385C29.8658 18.4622 32.2466 20.8738 32.2466 23.9017V25.3298H24.5279L24.5276 23.4855C24.5276 22.0708 24.1536 20.7473 23.5064 19.6001C24.4129 18.8796 25.5519 18.4485 26.8001 18.4385H26.8001Z" fill="#103E13"/>
</svg>
