<svg width="46" height="40" viewBox="0 0 46 40" fill="none" xmlns="http://www.w3.org/2000/svg">
<path d="M45.7925 27.0005C45.7925 33.9203 40.1829 39.5298 33.2632 39.5298L14.4694 39.5298C12.5472 39.5298 10.989 37.9716 10.989 36.0494L10.989 12.3831C10.989 8.53878 14.1054 5.42238 17.9497 5.42238L42.3121 5.42238C44.2343 5.42238 45.7925 6.98059 45.7925 8.90273L45.7925 27.0005Z" fill="#E8F5E9"/>
<path d="M19.2836 13.7826C19.0665 13.7826 18.8899 13.6063 18.8899 13.3888V12.7197C18.8899 12.5025 19.0662 12.3259 19.2836 12.3259C19.5008 12.3259 19.6774 12.5022 19.6774 12.7197V13.3888C19.6774 13.6063 19.5008 13.7826 19.2836 13.7826Z" fill="#103E13"/>
<path d="M17.6281 13.7826C17.4109 13.7826 17.2344 13.6063 17.2344 13.3888V12.7197C17.2344 12.5025 17.4107 12.3259 17.6281 12.3259C17.8453 12.3259 18.0219 12.5022 18.0219 12.7197V13.3888C18.0216 13.6063 17.8456 13.7826 17.6281 13.7826Z" fill="#103E13"/>
<path d="M15.9729 13.7826C15.7557 13.7826 15.5791 13.6063 15.5791 13.3888V12.7197C15.5791 12.5025 15.7554 12.3259 15.9729 12.3259C16.19 12.3259 16.3666 12.5022 16.3666 12.7197V13.3888C16.3666 13.6063 16.1903 13.7826 15.9729 13.7826Z" fill="#103E13"/>
<path d="M19.2836 16.5191C19.0665 16.5191 18.8899 16.3428 18.8899 16.1254V15.4565C18.8899 15.2393 19.0662 15.0627 19.2836 15.0627C19.5008 15.0627 19.6774 15.239 19.6774 15.4565V16.1254C19.6774 16.3428 19.5008 16.5191 19.2836 16.5191Z" fill="#103E13"/>
<path d="M17.6281 16.5191C17.4109 16.5191 17.2344 16.3428 17.2344 16.1254V15.4565C17.2344 15.2393 17.4107 15.0627 17.6281 15.0627C17.8453 15.0627 18.0219 15.239 18.0219 15.4565V16.1254C18.0216 16.3428 17.8456 16.5191 17.6281 16.5191Z" fill="#103E13"/>
<path d="M15.9729 16.5191C15.7557 16.5191 15.5791 16.3428 15.5791 16.1254V15.4565C15.5791 15.2393 15.7554 15.0627 15.9729 15.0627C16.19 15.0627 16.3666 15.239 16.3666 15.4565V16.1254C16.3666 16.3428 16.1903 16.5191 15.9729 16.5191Z" fill="#103E13"/>
<path d="M19.2836 19.2555C19.0665 19.2555 18.8899 19.0792 18.8899 18.8617V18.1926C18.8899 17.9754 19.0662 17.7988 19.2836 17.7988C19.5008 17.7988 19.6774 17.9751 19.6774 18.1926V18.8617C19.6774 19.0792 19.5008 19.2555 19.2836 19.2555Z" fill="#103E13"/>
<path d="M17.6281 19.2555C17.4109 19.2555 17.2344 19.0792 17.2344 18.8617V18.1926C17.2344 17.9754 17.4107 17.7988 17.6281 17.7988C17.8453 17.7988 18.0219 17.9751 18.0219 18.1926V18.8617C18.0216 19.0792 17.8456 19.2555 17.6281 19.2555Z" fill="#103E13"/>
<path d="M15.9729 19.2555C15.7557 19.2555 15.5791 19.0792 15.5791 18.8617V18.1926C15.5791 17.9754 15.7554 17.7988 15.9729 17.7988C16.19 17.7988 16.3666 17.9751 16.3666 18.1926V18.8617C16.3666 19.0792 16.1903 19.2555 15.9729 19.2555Z" fill="#103E13"/>
<path d="M19.2836 21.9913C19.0665 21.9913 18.8899 21.815 18.8899 21.5976V20.9284C18.8899 20.7112 19.0662 20.5347 19.2836 20.5347C19.5008 20.5347 19.6774 20.7109 19.6774 20.9284V21.5976C19.6774 21.815 19.5008 21.9913 19.2836 21.9913Z" fill="#103E13"/>
<path d="M17.6281 21.9913C17.4109 21.9913 17.2344 21.815 17.2344 21.5976V20.9284C17.2344 20.7112 17.4107 20.5347 17.6281 20.5347C17.8453 20.5347 18.0219 20.7109 18.0219 20.9284V21.5976C18.0216 21.815 17.8456 21.9913 17.6281 21.9913Z" fill="#103E13"/>
<path d="M15.9729 21.9913C15.7557 21.9913 15.5791 21.815 15.5791 21.5976V20.9284C15.5791 20.7112 15.7554 20.5347 15.9729 20.5347C16.19 20.5347 16.3666 20.7109 16.3666 20.9284V21.5976C16.3666 21.815 16.1903 21.9913 15.9729 21.9913Z" fill="#103E13"/>
<path d="M19.2836 24.7279C19.0665 24.7279 18.8899 24.5516 18.8899 24.3341V23.6652C18.8899 23.448 19.0662 23.2715 19.2836 23.2715C19.5008 23.2715 19.6774 23.4478 19.6774 23.6652V24.3341C19.6774 24.5513 19.5008 24.7279 19.2836 24.7279Z" fill="#103E13"/>
<path d="M17.6281 24.7279C17.4109 24.7279 17.2344 24.5516 17.2344 24.3341V23.6652C17.2344 23.448 17.4107 23.2715 17.6281 23.2715C17.8453 23.2715 18.0219 23.4478 18.0219 23.6652V24.3341C18.0216 24.5513 17.8456 24.7279 17.6281 24.7279Z" fill="#103E13"/>
<path d="M15.9729 24.7279C15.7557 24.7279 15.5791 24.5516 15.5791 24.3341L15.5794 23.6652C15.5794 23.448 15.7557 23.2715 15.9731 23.2715C16.1903 23.2715 16.3669 23.4478 16.3669 23.6652V24.3341C16.3666 24.5513 16.1903 24.7279 15.9729 24.7279Z" fill="#103E13"/>
<path d="M4.7247 27.4509C4.7247 27.6681 4.90097 27.8447 5.11844 27.8447H29.0965C29.3137 27.8447 29.4902 27.6684 29.4902 27.4509C29.4902 27.2337 29.3139 27.0572 29.0965 27.0572H28.3686V15.7521C28.3686 15.5349 28.1923 15.3584 27.9749 15.3584L21.5462 15.3586V7.20826C21.5462 7.07043 21.4742 6.94302 21.3567 6.87163C21.2394 6.79996 21.0928 6.79557 20.9709 6.859L13.6619 10.6644C13.5315 10.7322 13.4502 10.8668 13.4502 11.0137V18.1328H6.37675C6.15956 18.1328 5.983 18.3091 5.983 18.5266V27.0572H5.11757C4.90038 27.057 4.72437 27.2332 4.72437 27.4507L4.7247 27.4509ZM21.5463 21.3221H27.5815V27.0575L21.5463 27.0572V21.3221ZM21.5463 18.5859H27.5815V20.5349L21.5463 20.5346V18.5859ZM21.5463 16.1457H27.5815V17.799H21.5463V16.1457ZM14.2373 11.2527L20.7585 7.85729V27.0569H14.2373V11.2527ZM8.71693 23.9123C8.71693 23.0952 9.36439 22.4302 10.1604 22.4302C10.9564 22.4302 11.6041 23.0949 11.6041 23.9123V27.0574H8.71693V23.9123ZM6.77048 18.9202H13.4501V27.0572H12.3916V23.9122C12.3916 22.6609 11.3911 21.6428 10.1604 21.6428C8.93027 21.6428 7.92973 22.6607 7.92973 23.9122V27.0572H6.77048V18.9202Z" fill="#103E13"/>
</svg>
