<svg width="18" height="19" viewBox="0 0 18 19" fill="none" xmlns="http://www.w3.org/2000/svg">
<path fill-rule="evenodd" clip-rule="evenodd" d="M9.03122 1.99732C8.50184 1.99726 7.98187 2.1373 7.5241 2.40319C7.06634 2.66909 6.68709 3.05138 6.42486 3.51126C6.16262 3.97113 6.02675 4.4922 6.03103 5.02157C6.03531 5.55094 6.17959 6.06974 6.44922 6.52532C6.54539 6.68726 6.59387 6.87307 6.58908 7.06135C6.58428 7.24964 6.52641 7.43274 6.42213 7.58958C6.31785 7.74643 6.17139 7.87063 5.99963 7.94789C5.82786 8.02516 5.63776 8.05234 5.45122 8.02632C4.96622 7.95785 4.47183 8.00918 4.01124 8.17582C3.55065 8.34246 3.13787 8.61934 2.80895 8.98228C2.48003 9.34522 2.24497 9.78317 2.12432 10.2579C2.00367 10.7326 2.00109 11.2296 2.1168 11.7056C2.23251 12.1815 2.463 12.6219 2.78814 12.9882C3.11327 13.3546 3.52315 13.6357 3.98199 13.8072C4.44082 13.9786 4.93465 14.035 5.42034 13.9716C5.90602 13.9082 6.36879 13.7268 6.76822 13.4433C6.93327 13.3259 7.13009 13.2613 7.33263 13.2582C7.53517 13.2551 7.73388 13.3136 7.90245 13.4259C8.07103 13.5382 8.20152 13.699 8.27666 13.8872C8.3518 14.0753 8.36803 14.2818 8.32322 14.4793C8.13639 15.3337 7.89353 16.1748 7.59622 16.9973H10.4662C10.1642 16.1873 9.92622 15.3063 9.73922 14.4793C9.69441 14.2818 9.71065 14.0753 9.78578 13.8872C9.86092 13.699 9.99142 13.5382 10.16 13.4259C10.3286 13.3136 10.5273 13.2551 10.7298 13.2582C10.9324 13.2613 11.1292 13.3259 11.2942 13.4433C11.6937 13.7268 12.1564 13.9082 12.6421 13.9716C13.1278 14.035 13.6216 13.9786 14.0805 13.8072C14.5393 13.6357 14.9492 13.3546 15.2743 12.9882C15.5994 12.6219 15.8299 12.1815 15.9456 11.7056C16.0614 11.2296 16.0588 10.7326 15.9381 10.2579C15.8175 9.78317 15.5824 9.34522 15.2535 8.98228C14.9246 8.61934 14.5118 8.34246 14.0512 8.17582C13.5906 8.00918 13.0962 7.95785 12.6112 8.02632C12.4248 8.0522 12.2349 8.02496 12.0633 7.94773C11.8917 7.87051 11.7454 7.74642 11.6411 7.58975C11.5369 7.43308 11.479 7.25017 11.474 7.06205C11.4691 6.87393 11.5173 6.68824 11.6132 6.52632C11.8831 6.07072 12.0276 5.55181 12.032 5.02229C12.0364 4.49278 11.9006 3.97153 11.6383 3.5115C11.3761 3.05148 10.9967 2.66906 10.5388 2.40312C10.0809 2.13717 9.56076 1.99716 9.03122 1.99732ZM4.03122 4.99732C4.0316 4.29519 4.17985 3.60102 4.46631 2.96C4.75278 2.31897 5.17104 1.74546 5.69387 1.27682C6.2167 0.808172 6.83236 0.454893 7.50079 0.239982C8.16921 0.0250718 8.8754 -0.0466516 9.57339 0.0294817C10.2714 0.105615 10.9455 0.327898 11.5519 0.681859C12.1582 1.03582 12.6833 1.51352 13.0928 2.08386C13.5023 2.6542 13.787 3.30439 13.9286 3.9921C14.0701 4.67981 14.0652 5.38962 13.9142 6.07532C15.1966 6.32739 16.3293 7.07133 17.0701 8.14795C17.8109 9.22457 18.101 10.5484 17.8782 11.8361C17.6554 13.1239 16.9375 14.2733 15.878 15.0384C14.8186 15.8036 13.5017 16.1237 12.2092 15.9303C12.4122 16.5323 12.6392 17.0663 12.8892 17.4823C12.9804 17.6341 13.0297 17.8074 13.0319 17.9845C13.0342 18.1615 12.9894 18.336 12.9022 18.4901C12.8149 18.6442 12.6883 18.7723 12.5353 18.8615C12.3822 18.9506 12.2083 18.9975 12.0312 18.9973H6.03122C5.85423 18.9973 5.68041 18.9503 5.52752 18.8611C5.37464 18.7719 5.24817 18.6437 5.16102 18.4897C5.07388 18.3356 5.02918 18.1612 5.0315 17.9842C5.03382 17.8072 5.08307 17.634 5.17422 17.4823C5.42422 17.0663 5.65022 16.5323 5.85322 15.9303C4.54637 16.1564 3.20322 15.8541 2.11926 15.0899C1.0353 14.3257 0.299319 13.1622 0.0732224 11.8553C-0.152875 10.5485 0.149435 9.20532 0.913645 8.12136C1.67786 7.0374 2.84137 6.30141 4.14822 6.07532C4.07037 5.72127 4.03114 5.35982 4.03122 4.99732Z" fill="#4CAF4F"/>
</svg>
