<svg width="30" height="24" viewBox="0 0 30 24" fill="none" xmlns="http://www.w3.org/2000/svg">
<path d="M2.13275 6.63401V6.98205H2.48079H27.5393H27.8873V6.63401V5.06785C27.8873 4.28327 27.5756 3.53081 27.0209 2.97602C26.4661 2.42123 25.7136 2.10956 24.929 2.10956H5.09105C4.30646 2.10956 3.554 2.42123 2.99922 2.97602C2.44443 3.53081 2.13275 4.28327 2.13275 5.06785V6.63401ZM27.8873 8.72222V8.37418H27.5393H2.48079H2.13275V8.72222V18.6412C2.13275 19.4258 2.44443 20.1783 2.99922 20.733C3.554 21.2878 4.30646 21.5995 5.09105 21.5995H24.929C25.7136 21.5995 26.4661 21.2878 27.0209 20.733C27.5756 20.1783 27.8873 19.4258 27.8873 18.6412V8.72222ZM0.740613 5.06785C0.740613 3.91405 1.19896 2.8075 2.01483 1.99163C2.83069 1.17577 3.93724 0.71742 5.09105 0.71742H24.929C26.0828 0.71742 27.1894 1.17577 28.0052 1.99163C28.8211 2.8075 29.2795 3.91405 29.2795 5.06785V18.6412C29.2795 19.795 28.8211 20.9016 28.0052 21.7174C27.1894 22.5333 26.0828 22.9916 24.929 22.9916H5.09105C3.93724 22.9916 2.83069 22.5333 2.01483 21.7174C1.19896 20.9016 0.740613 19.795 0.740613 18.6412V5.06785ZM20.2306 15.3349H23.3629C23.5475 15.3349 23.7245 15.4082 23.8551 15.5388C23.9856 15.6693 24.0589 15.8463 24.0589 16.0309C24.0589 16.2156 23.9856 16.3926 23.8551 16.5231C23.7245 16.6537 23.5475 16.727 23.3629 16.727H20.2306C20.0459 16.727 19.8689 16.6537 19.7384 16.5231C19.6078 16.3926 19.5345 16.2156 19.5345 16.0309C19.5345 15.8463 19.6078 15.6693 19.7384 15.5388C19.8689 15.4082 20.0459 15.3349 20.2306 15.3349Z" fill="#4CAF4F" stroke="#4CAF4F" stroke-width="0.696069"/>
</svg>
