<svg width="24" height="27" viewBox="0 0 24 27" fill="none" xmlns="http://www.w3.org/2000/svg">
<path d="M23.2742 26.0585V23.2742C23.2742 21.7974 22.6875 20.381 21.6432 19.3367C20.5989 18.2924 19.1825 17.7057 17.7057 17.7057H16.3135C15.9443 17.7057 15.5902 17.559 15.3291 17.2979C15.0681 17.0368 14.9214 16.6827 14.9214 16.3135V9.35283C14.9214 8.6144 14.628 7.90621 14.1059 7.38405C13.5837 6.8619 12.8755 6.56856 12.1371 6.56856V6.56856C11.3987 6.56856 10.6905 6.8619 10.1683 7.38405C9.64618 7.90621 9.35283 8.6144 9.35283 9.35283V21.8821L6.0117 17.4272C5.75235 17.0814 5.41606 16.8008 5.02945 16.6075C4.64283 16.4142 4.21652 16.3135 3.78428 16.3135H3.18009C1.97589 16.3135 1 17.2894 1 18.4936C1 18.889 1.10719 19.2774 1.31045 19.6157L5.17642 26.0585M12.1371 2.39214V1ZM20.4899 10.745H21.8821ZM2.39214 10.745H3.78428ZM5.65392 4.26178L4.66968 3.27754ZM18.6203 4.26178L19.6045 3.27754Z" fill="#4CAF4F"/>
<path d="M23.2742 26.0585V23.2742C23.2742 21.7974 22.6875 20.381 21.6432 19.3367C20.5989 18.2924 19.1825 17.7057 17.7057 17.7057H16.3135C15.9443 17.7057 15.5902 17.559 15.3291 17.2979C15.0681 17.0368 14.9214 16.6827 14.9214 16.3135V9.35283C14.9214 8.6144 14.628 7.90621 14.1059 7.38405C13.5837 6.8619 12.8755 6.56856 12.1371 6.56856V6.56856C11.3987 6.56856 10.6905 6.8619 10.1683 7.38405C9.64618 7.90621 9.35283 8.6144 9.35283 9.35283V21.8821L6.0117 17.4272C5.75235 17.0814 5.41606 16.8008 5.02945 16.6075C4.64283 16.4142 4.21652 16.3135 3.78428 16.3135H3.18009C1.97589 16.3135 1 17.2894 1 18.4936C1 18.889 1.10719 19.2774 1.31045 19.6157L5.17642 26.0585M12.1371 2.39214V1M20.4899 10.745H21.8821M2.39214 10.745H3.78428M5.65392 4.26178L4.66968 3.27754M18.6203 4.26178L19.6045 3.27754" stroke="#4CAF4F" stroke-width="1.39214" stroke-linecap="round" stroke-linejoin="round"/>
</svg>
