<svg width="12" height="10" viewBox="0 0 12 10" fill="none" xmlns="http://www.w3.org/2000/svg">
<mask id="path-1-inside-1_211_2342" fill="white">
<path d="M10.8813 7.82252C10.398 8.62853 9.60319 9.18022 8.64302 9.37636C7.69137 9.57036 6.69052 9.39145 5.8243 8.87207L1.1836 6.08816C0.957784 5.9527 0.798054 5.73754 0.734099 5.48202C0.670635 5.22701 0.710319 4.96216 0.845611 4.7365C0.930067 4.59547 1.04847 4.48428 1.18573 4.40212L1.18442 4.4013C0.958604 4.26584 0.798875 4.05069 0.735256 3.7955C0.6713 3.54033 0.710984 3.2753 0.84644 3.04935C0.933683 2.90422 1.05324 2.79074 1.18968 2.71022C0.991573 2.57394 0.848901 2.376 0.790193 2.14115C0.726238 1.88582 0.765923 1.62095 0.901379 1.3953C1.03667 1.16948 1.252 1.00991 1.50718 0.946131C1.58688 0.926124 1.66773 0.916284 1.74776 0.916284C1.90486 0.916448 2.05902 0.956299 2.2007 1.03043C2.20939 0.846918 2.264 0.666688 2.37126 0.512031C2.66529 0.0878018 3.25435 -0.029622 3.71321 0.245705L7.51343 2.52521L7.02358 1.64291C6.83565 1.30607 6.84254 0.890507 7.04179 0.558261C7.13887 0.396563 7.27761 0.262254 7.4434 0.169272C7.57968 0.0938346 7.72727 0.0580866 7.87288 0.0580866C8.18561 0.0582506 8.48934 0.223228 8.65102 0.515314C9.2145 1.53061 10.2778 3.44537 10.3526 3.57904C10.3685 3.60216 10.4165 3.67104 10.4577 3.72958C10.4969 3.78518 10.5392 3.83831 10.583 3.89112C11.5319 5.04134 11.6463 6.54762 10.8813 7.82253L10.8813 7.82252ZM10.179 4.22487C10.1268 4.16173 10.0757 4.09728 10.0291 4.03086C9.8874 3.82981 9.88379 3.82456 9.87313 3.77192C9.7075 3.49789 9.30343 2.77043 8.19271 0.769359C8.0953 0.593722 7.87391 0.529603 7.69762 0.627014C7.61087 0.675554 7.54117 0.743283 7.49033 0.82807C7.38735 0.999769 7.38341 1.21427 7.48066 1.38845L8.44461 3.12529C8.50217 3.22893 8.48298 3.35816 8.39787 3.44048C8.31292 3.52297 8.18304 3.5374 8.08104 3.47672L3.44369 0.694739C3.22509 0.563709 2.93697 0.61504 2.80183 0.81019C2.7241 0.922361 2.69934 1.05618 2.7318 1.18688C2.76165 1.30627 2.8366 1.40696 2.9427 1.47059C2.94303 1.47075 2.94319 1.47108 2.94352 1.47124L5.97559 3.29024C6.09957 3.3647 6.13975 3.52541 6.06529 3.64955C5.99084 3.77337 5.83029 3.81387 5.70598 3.73926L1.98352 1.50619C1.87791 1.44289 1.7536 1.42419 1.63421 1.4542C1.5145 1.48405 1.41381 1.55883 1.35034 1.66493C1.28671 1.7707 1.26835 1.89485 1.29787 2.01423C1.32771 2.13362 1.40266 2.23448 1.50859 2.2981L2.23295 2.73253L5.23089 4.53121C5.35487 4.60566 5.39505 4.76638 5.3206 4.89052C5.24615 5.01433 5.08559 5.05468 4.96129 4.98022L1.92859 3.16072C1.71048 3.02953 1.42644 3.1007 1.29525 3.31914C1.23162 3.42507 1.21325 3.54922 1.24277 3.6686C1.27262 3.78799 1.34756 3.88868 1.45366 3.95247L2.19721 4.39853L4.48636 5.77198C4.61034 5.84643 4.65052 6.00714 4.57607 6.13128C4.50162 6.2551 4.34106 6.29577 4.21676 6.22099L1.9276 4.84754C1.82199 4.78424 1.69818 4.76555 1.57813 4.79556C1.45874 4.8254 1.35773 4.90019 1.29426 5.00596C1.2308 5.1119 1.21227 5.23621 1.24179 5.35543C1.27163 5.47482 1.34658 5.57551 1.45268 5.6393L6.09338 8.42321C6.84645 8.87502 7.71493 9.03145 8.53787 8.86352C9.35224 8.69723 10.025 8.23198 10.432 7.55339C11.0897 6.45757 10.9951 5.21322 10.1793 4.22484L10.179 4.22487Z"/>
</mask>
<path d="M10.8813 7.82252C10.398 8.62853 9.60319 9.18022 8.64302 9.37636C7.69137 9.57036 6.69052 9.39145 5.8243 8.87207L1.1836 6.08816C0.957784 5.9527 0.798054 5.73754 0.734099 5.48202C0.670635 5.22701 0.710319 4.96216 0.845611 4.7365C0.930067 4.59547 1.04847 4.48428 1.18573 4.40212L1.18442 4.4013C0.958604 4.26584 0.798875 4.05069 0.735256 3.7955C0.6713 3.54033 0.710984 3.2753 0.84644 3.04935C0.933683 2.90422 1.05324 2.79074 1.18968 2.71022C0.991573 2.57394 0.848901 2.376 0.790193 2.14115C0.726238 1.88582 0.765923 1.62095 0.901379 1.3953C1.03667 1.16948 1.252 1.00991 1.50718 0.946131C1.58688 0.926124 1.66773 0.916284 1.74776 0.916284C1.90486 0.916448 2.05902 0.956299 2.2007 1.03043C2.20939 0.846918 2.264 0.666688 2.37126 0.512031C2.66529 0.0878018 3.25435 -0.029622 3.71321 0.245705L7.51343 2.52521L7.02358 1.64291C6.83565 1.30607 6.84254 0.890507 7.04179 0.558261C7.13887 0.396563 7.27761 0.262254 7.4434 0.169272C7.57968 0.0938346 7.72727 0.0580866 7.87288 0.0580866C8.18561 0.0582506 8.48934 0.223228 8.65102 0.515314C9.2145 1.53061 10.2778 3.44537 10.3526 3.57904C10.3685 3.60216 10.4165 3.67104 10.4577 3.72958C10.4969 3.78518 10.5392 3.83831 10.583 3.89112C11.5319 5.04134 11.6463 6.54762 10.8813 7.82253L10.8813 7.82252ZM10.179 4.22487C10.1268 4.16173 10.0757 4.09728 10.0291 4.03086C9.8874 3.82981 9.88379 3.82456 9.87313 3.77192C9.7075 3.49789 9.30343 2.77043 8.19271 0.769359C8.0953 0.593722 7.87391 0.529603 7.69762 0.627014C7.61087 0.675554 7.54117 0.743283 7.49033 0.82807C7.38735 0.999769 7.38341 1.21427 7.48066 1.38845L8.44461 3.12529C8.50217 3.22893 8.48298 3.35816 8.39787 3.44048C8.31292 3.52297 8.18304 3.5374 8.08104 3.47672L3.44369 0.694739C3.22509 0.563709 2.93697 0.61504 2.80183 0.81019C2.7241 0.922361 2.69934 1.05618 2.7318 1.18688C2.76165 1.30627 2.8366 1.40696 2.9427 1.47059C2.94303 1.47075 2.94319 1.47108 2.94352 1.47124L5.97559 3.29024C6.09957 3.3647 6.13975 3.52541 6.06529 3.64955C5.99084 3.77337 5.83029 3.81387 5.70598 3.73926L1.98352 1.50619C1.87791 1.44289 1.7536 1.42419 1.63421 1.4542C1.5145 1.48405 1.41381 1.55883 1.35034 1.66493C1.28671 1.7707 1.26835 1.89485 1.29787 2.01423C1.32771 2.13362 1.40266 2.23448 1.50859 2.2981L2.23295 2.73253L5.23089 4.53121C5.35487 4.60566 5.39505 4.76638 5.3206 4.89052C5.24615 5.01433 5.08559 5.05468 4.96129 4.98022L1.92859 3.16072C1.71048 3.02953 1.42644 3.1007 1.29525 3.31914C1.23162 3.42507 1.21325 3.54922 1.24277 3.6686C1.27262 3.78799 1.34756 3.88868 1.45366 3.95247L2.19721 4.39853L4.48636 5.77198C4.61034 5.84643 4.65052 6.00714 4.57607 6.13128C4.50162 6.2551 4.34106 6.29577 4.21676 6.22099L1.9276 4.84754C1.82199 4.78424 1.69818 4.76555 1.57813 4.79556C1.45874 4.8254 1.35773 4.90019 1.29426 5.00596C1.2308 5.1119 1.21227 5.23621 1.24179 5.35543C1.27163 5.47482 1.34658 5.57551 1.45268 5.6393L6.09338 8.42321C6.84645 8.87502 7.71493 9.03145 8.53787 8.86352C9.35224 8.69723 10.025 8.23198 10.432 7.55339C11.0897 6.45757 10.9951 5.21322 10.1793 4.22484L10.179 4.22487Z" fill="#4CAF4F"/>
<path d="M10.8813 7.82252L10.5819 6.94407L12.9805 6.12634L11.6773 8.29979L10.8813 7.82252ZM8.64302 9.37636L8.82877 10.2857L8.82841 10.2857L8.64302 9.37636ZM5.8243 8.87207L5.34704 9.66805L5.34686 9.66794L5.8243 8.87207ZM1.1836 6.08816L1.66102 5.29227L1.66104 5.29229L1.1836 6.08816ZM0.734099 5.48202L-0.166221 5.70737L-0.166522 5.70616L0.734099 5.48202ZM0.845611 4.7365L1.64186 5.21331L1.6416 5.21374L0.845611 4.7365ZM1.18573 4.40212L1.67762 3.6151L2.96425 4.41924L1.66238 5.19847L1.18573 4.40212ZM1.18442 4.4013L1.66184 3.60542L1.66912 3.60979L1.67631 3.61428L1.18442 4.4013ZM0.735256 3.7955L1.6355 3.56987L1.63578 3.57099L0.735256 3.7955ZM0.84644 3.04935L0.0504318 2.57215L0.0510034 2.57119L0.84644 3.04935ZM1.18968 2.71022L1.71568 1.94558L2.91431 2.77012L1.66136 3.50951L1.18968 2.71022ZM0.790193 2.14115L1.69047 1.91565L1.69058 1.91607L0.790193 2.14115ZM0.901379 1.3953L1.69751 1.87229L1.69711 1.87296L0.901379 1.3953ZM1.50718 0.946131L1.73315 1.84629L1.73223 1.84652L1.50718 0.946131ZM1.74776 0.916285V-0.0118084L1.74873 -0.0118074L1.74776 0.916285ZM2.2007 1.03043L3.12776 1.07433L3.05896 2.52688L1.77047 1.85277L2.2007 1.03043ZM2.37126 0.512031L3.13404 1.04072L3.13391 1.04091L2.37126 0.512031ZM3.71321 0.245705L3.23581 1.0416L3.2357 1.04153L3.71321 0.245705ZM7.51343 2.52521L8.32485 2.07471L10.0059 5.10251L7.03603 3.3211L7.51343 2.52521ZM7.02358 1.64291L7.83406 1.19071L7.83501 1.19241L7.02358 1.64291ZM7.04179 0.558261L6.24585 0.0809326L6.24609 0.0805273L7.04179 0.558261ZM7.4434 0.169272L6.98942 -0.640223L6.99392 -0.642715L7.4434 0.169272ZM7.87288 0.0580864V-0.870007L7.87337 -0.870006L7.87288 0.0580864ZM8.65102 0.515314L7.83952 0.965688L7.83901 0.964767L8.65102 0.515314ZM10.3526 3.57904L9.58797 4.10507L9.5636 4.06964L9.54261 4.03211L10.3526 3.57904ZM10.4577 3.72958L9.69918 4.26436L9.6985 4.2634L10.4577 3.72958ZM10.583 3.89112L11.2974 3.29873L11.2989 3.30052L10.583 3.89112ZM10.8813 7.82253L11.1808 8.70098L8.7809 9.51912L10.0855 7.345L10.8813 7.82253ZM10.179 4.22487L10.2709 5.14839L9.77853 5.19741L9.46341 4.81591L10.179 4.22487ZM10.0291 4.03086L10.7877 3.49623L10.789 3.49799L10.0291 4.03086ZM9.87313 3.77192L10.6674 3.29183L10.7508 3.42976L10.7828 3.58773L9.87313 3.77192ZM8.19271 0.769359L7.38125 1.21977L7.38109 1.2195L8.19271 0.769359ZM7.69762 0.627014L7.24444 -0.182928L7.24876 -0.185316L7.69762 0.627014ZM7.49033 0.828071L8.28631 1.30532L8.28623 1.30546L7.49033 0.828071ZM7.48066 1.38845L8.291 0.936003L8.29215 0.938069L7.48066 1.38845ZM8.44461 3.12529L7.63324 3.5759L7.63312 3.57567L8.44461 3.12529ZM8.39787 3.44048L7.75132 2.77465L7.75263 2.77338L8.39787 3.44048ZM8.08104 3.47672L7.60655 4.27437L7.60359 4.27259L8.08104 3.47672ZM3.44369 0.694738L3.92085 -0.101303L3.92114 -0.101126L3.44369 0.694738ZM2.80183 0.810189L3.56483 1.33857L3.56466 1.33882L2.80183 0.810189ZM2.7318 1.18688L1.83142 1.41197L1.83109 1.41064L2.7318 1.18688ZM2.9427 1.47059L2.52756 2.30066L2.49581 2.28478L2.46538 2.26653L2.9427 1.47059ZM2.94352 1.47124L3.35866 0.641176L3.39047 0.657085L3.42097 0.675384L2.94352 1.47124ZM5.97559 3.29024L6.45304 2.49438L6.45339 2.49459L5.97559 3.29024ZM6.06529 3.64955L6.86121 4.12691L6.86066 4.12782L6.06529 3.64955ZM5.70598 3.73925L6.18342 2.94338L6.18365 2.94352L5.70598 3.73925ZM1.98352 1.50619L2.46065 0.710135L2.46095 0.710315L1.98352 1.50619ZM1.63421 1.4542L1.86046 2.35429L1.85873 2.35473L1.63421 1.4542ZM1.35034 1.66493L2.14683 2.14135L2.14563 2.14333L1.35034 1.66493ZM1.29787 2.01423L0.397479 2.23933L0.396903 2.23699L1.29787 2.01423ZM1.50859 2.2981L1.03124 3.09403L1.03073 3.09372L1.50859 2.2981ZM2.23295 2.73253L2.7103 1.93661L2.71044 1.93669L2.23295 2.73253ZM5.23089 4.53121L5.70838 3.73537L5.7087 3.73556L5.23089 4.53121ZM5.3206 4.89052L6.11651 5.36788L6.11597 5.36879L5.3206 4.89052ZM4.96129 4.98022L4.48439 5.77642L4.48381 5.77607L4.96129 4.98022ZM1.92859 3.16072L1.45111 3.95657L1.45021 3.95603L1.92859 3.16072ZM1.29525 3.31914L2.09087 3.79699L2.09086 3.797L1.29525 3.31914ZM1.24277 3.6686L0.342383 3.8937L0.341807 3.89137L1.24277 3.6686ZM1.45366 3.95247L0.976215 4.74834L0.97544 4.74787L1.45366 3.95247ZM2.19721 4.39853L2.67465 3.60267L2.67469 3.60269L2.19721 4.39853ZM4.48636 5.77198L4.96385 4.97614L4.96417 4.97633L4.48636 5.77198ZM4.57607 6.13128L5.37198 6.60865L5.37144 6.60955L4.57607 6.13128ZM4.21676 6.22099L4.69425 5.42515L4.6952 5.42572L4.21676 6.22099ZM1.9276 4.84754L2.40474 4.05149L2.40509 4.0517L1.9276 4.84754ZM1.57813 4.79556L1.35304 3.89517L1.35305 3.89517L1.57813 4.79556ZM1.29426 5.00596L0.498105 4.529L0.498431 4.52846L1.29426 5.00596ZM1.24179 5.35543L0.341401 5.58052L0.340895 5.57848L1.24179 5.35543ZM1.45268 5.6393L0.975243 6.43517L0.974458 6.4347L1.45268 5.6393ZM6.09338 8.42321L6.57081 7.62734L6.57085 7.62736L6.09338 8.42321ZM8.53787 8.86352L8.72354 9.77285L8.72343 9.77287L8.53787 8.86352ZM10.432 7.55339L9.63607 7.07601L9.63623 7.07573L10.432 7.55339ZM10.1793 4.22484L10.0873 3.30131L10.5799 3.25227L10.895 3.63402L10.1793 4.22484ZM11.6773 8.29979C11.0538 9.33966 10.0315 10.04 8.82877 10.2857L8.45727 8.46705C9.17488 8.32046 9.74229 7.91741 10.0854 7.34525L11.6773 8.29979ZM8.82841 10.2857C7.63981 10.5281 6.40359 10.3015 5.34704 9.66805L6.30156 8.0761C6.97744 8.48135 7.74292 8.61267 8.45763 8.46697L8.82841 10.2857ZM5.34686 9.66794L0.706165 6.88403L1.66104 5.29229L6.30174 8.0762L5.34686 9.66794ZM0.706182 6.88404C0.269747 6.62224 -0.0423961 6.20208 -0.166221 5.70737L1.63442 5.25667C1.63694 5.26674 1.64044 5.27298 1.64355 5.27718C1.64667 5.28138 1.65178 5.28673 1.66102 5.29227L0.706182 6.88404ZM-0.166522 5.70616C-0.289471 5.21213 -0.211699 4.69512 0.0496222 4.25926L1.6416 5.21374C1.63604 5.22301 1.63399 5.23026 1.63319 5.23561C1.6324 5.24094 1.63228 5.24809 1.63472 5.25788L-0.166522 5.70616ZM0.0493666 4.25969C0.22146 3.9723 0.456604 3.7569 0.709086 3.60578L1.66238 5.19847C1.65108 5.20523 1.64507 5.21048 1.64266 5.21283C1.64048 5.21495 1.6408 5.21507 1.64186 5.21331L0.0493666 4.25969ZM0.693845 5.18914L0.692533 5.18832L1.67631 3.61428L1.67762 3.6151L0.693845 5.18914ZM0.707002 5.19718C0.270765 4.9355 -0.041806 4.51525 -0.165273 4.02001L1.63578 3.57099C1.63814 3.58042 1.64143 3.58634 1.64445 3.59042C1.64749 3.59452 1.65257 3.59986 1.66184 3.60542L0.707002 5.19718ZM-0.164991 4.02114C-0.289091 3.526 -0.211025 3.00827 0.0504324 2.57215L1.64245 3.52656C1.63677 3.53603 1.63477 3.54328 1.634 3.54842C1.63324 3.55353 1.63312 3.56037 1.6355 3.56987L-0.164991 4.02114ZM0.0510034 2.57119C0.222348 2.28616 0.456462 2.06526 0.717995 1.91092L1.66136 3.50951C1.65533 3.51307 1.65124 3.51642 1.64854 3.51906C1.64599 3.52156 1.64388 3.52419 1.64188 3.52751L0.0510034 2.57119ZM0.663675 3.47486C0.288792 3.21698 0.00614089 2.83161 -0.110194 2.36623L1.69058 1.91607C1.69167 1.92045 1.69314 1.92356 1.69554 1.92695C1.69815 1.93064 1.70396 1.93751 1.71568 1.94558L0.663675 3.47486ZM-0.110088 2.36665C-0.234088 1.87159 -0.156206 1.35385 0.105645 0.917632L1.69711 1.87296C1.6916 1.88214 1.68967 1.88914 1.68893 1.89411C1.68819 1.89906 1.68804 1.90592 1.69047 1.91565L-0.110088 2.36665ZM0.105243 0.918303C0.367182 0.481109 0.787977 0.169251 1.28213 0.0457382L1.73223 1.84652C1.72233 1.849 1.71616 1.85246 1.71204 1.85551C1.70792 1.85857 1.7028 1.86348 1.69751 1.87229L0.105243 0.918303ZM1.28121 0.0459681C1.43495 0.00737286 1.5917 -0.0118084 1.74776 -0.0118084V1.84438C1.74375 1.84438 1.7388 1.84487 1.73315 1.84629L1.28121 0.0459681ZM1.74873 -0.0118074C2.06399 -0.0114784 2.36465 0.0687618 2.63094 0.208079L1.77047 1.85277C1.76164 1.84815 1.75533 1.84611 1.75183 1.84522C1.74843 1.84436 1.7469 1.84438 1.74679 1.84438L1.74873 -0.0118074ZM1.27365 0.986517C1.28964 0.648994 1.3914 0.296352 1.6086 -0.0168514L3.13391 1.04091C3.1366 1.03702 3.12915 1.04484 3.12776 1.07433L1.27365 0.986517ZM1.60847 -0.0166636C2.19632 -0.864791 3.33601 -1.06297 4.19072 -0.550121L3.2357 1.04153C3.20866 1.0253 3.18212 1.02269 3.16133 1.02683C3.141 1.03087 3.13542 1.03873 3.13404 1.04072L1.60847 -0.0166636ZM4.19061 -0.550186L7.99083 1.72931L7.03603 3.3211L3.23581 1.0416L4.19061 -0.550186ZM6.70201 2.9757L6.21216 2.09341L7.83501 1.19241L8.32485 2.07471L6.70201 2.9757ZM6.21311 2.09511C5.86255 1.46681 5.87654 0.696758 6.24585 0.0809326L7.83772 1.03559C7.80854 1.08426 7.80874 1.14534 7.83406 1.19071L6.21311 2.09511ZM6.24609 0.0805273C6.4271 -0.220943 6.68419 -0.469025 6.98943 -0.64021L7.89738 0.978755C7.87103 0.993533 7.85064 1.01407 7.83748 1.03599L6.24609 0.0805273ZM6.99392 -0.642715C7.27162 -0.796435 7.57449 -0.870006 7.87288 -0.870006V0.986179C7.87607 0.986179 7.87975 0.985779 7.88365 0.984786C7.88768 0.983759 7.89089 0.982364 7.89288 0.981259L6.99392 -0.642715ZM7.87337 -0.870006C8.5076 -0.869674 9.1304 -0.535073 9.46302 0.0658607L7.83901 0.964767C7.84048 0.967416 7.84294 0.970892 7.84634 0.97432C7.84961 0.977614 7.85293 0.980052 7.8559 0.981757C7.86116 0.984785 7.86639 0.986176 7.87239 0.986179L7.87337 -0.870006ZM9.46251 0.0649395C10.0267 1.08144 11.0888 2.99407 11.1626 3.12597L9.54261 4.03211C9.46684 3.89667 8.40234 1.97977 7.83952 0.965688L9.46251 0.0649395ZM11.1172 3.05301C11.1303 3.07208 11.1761 3.13778 11.2169 3.19577L9.6985 4.2634C9.65695 4.2043 9.60667 4.13225 9.58797 4.10507L11.1172 3.05301ZM11.2162 3.1948C11.2354 3.22202 11.2605 3.25414 11.2974 3.29873L9.86856 4.48351C9.81796 4.42248 9.75838 4.34833 9.69918 4.26436L11.2162 3.1948ZM11.2989 3.30052C12.4969 4.75265 12.6452 6.68668 11.6771 8.30006L10.0855 7.345C10.6474 6.40856 10.5669 5.33003 9.86708 4.48172L11.2989 3.30052ZM10.5818 6.94408L10.5819 6.94407L11.1808 8.70097L11.1808 8.70098L10.5818 6.94408ZM9.46341 4.81591C9.40475 4.74489 9.33607 4.65907 9.26922 4.56373L10.789 3.49799C10.8153 3.53549 10.8489 3.57857 10.8945 3.63382L9.46341 4.81591ZM9.27045 4.56549C9.21203 4.48259 9.14923 4.39458 9.10753 4.32555C9.07966 4.2794 9.04234 4.21199 9.01082 4.12613C8.98013 4.04252 8.96649 3.97089 8.9635 3.95611L10.7828 3.58773C10.7851 3.59926 10.7759 3.54803 10.7533 3.4865C10.7299 3.4227 10.7043 3.37905 10.6964 3.36592C10.6926 3.35965 10.6912 3.35764 10.6941 3.36204C10.6969 3.36625 10.7018 3.37357 10.7102 3.38565C10.7275 3.41073 10.7513 3.44452 10.7877 3.49623L9.27045 4.56549ZM9.07885 4.252C8.90154 3.95864 8.4842 3.20686 7.38125 1.21977L9.00418 0.318943C10.1227 2.33401 10.5135 3.03713 10.6674 3.29183L9.07885 4.252ZM7.38109 1.2195C7.53137 1.49046 7.87348 1.59019 8.14648 1.43935L7.24876 -0.185316C7.87434 -0.530987 8.65924 -0.303011 9.00434 0.319219L7.38109 1.2195ZM8.15079 1.43694C8.20535 1.40642 8.25385 1.35948 8.28631 1.30532L6.69435 0.35082C6.82849 0.127092 7.01639 -0.0553141 7.24444 -0.182917L8.15079 1.43694ZM8.28623 1.30546C8.35269 1.19466 8.35718 1.05454 8.291 0.936005L6.67032 1.84089C6.40964 1.374 6.422 0.80488 6.69443 0.350682L8.28623 1.30546ZM8.29215 0.938069L9.2561 2.67491L7.63312 3.57567L6.66917 1.83883L8.29215 0.938069ZM9.25597 2.67468C9.51727 3.14517 9.43048 3.73291 9.0431 4.10758L7.75263 2.77338C7.53549 2.98341 7.48707 3.3127 7.63324 3.5759L9.25597 2.67468ZM9.04442 4.10631C8.65397 4.48545 8.0636 4.54624 7.60656 4.27436L8.55551 2.67909C8.30248 2.52857 7.97187 2.56048 7.75132 2.77465L9.04442 4.10631ZM7.60359 4.27259L2.96625 1.4906L3.92114 -0.101126L8.55848 2.68086L7.60359 4.27259ZM2.96654 1.49078C3.05708 1.54505 3.15935 1.56087 3.25529 1.54367C3.35123 1.52646 3.47498 1.46832 3.56483 1.33857L2.03883 0.281813C2.48557 -0.363307 3.3349 -0.45252 3.92085 -0.101303L2.96654 1.49078ZM3.56466 1.33882C3.6371 1.23428 3.66514 1.09443 3.63252 0.963128L1.83109 1.41064C1.73353 1.01792 1.81109 0.610444 2.039 0.281558L3.56466 1.33882ZM3.63219 0.96179C3.6018 0.840229 3.52323 0.736543 3.42002 0.674647L2.46538 2.26653C2.14996 2.07738 1.9215 1.77231 1.83142 1.41197L3.63219 0.96179ZM3.35784 0.64052C3.44168 0.68245 3.50336 0.729204 3.5424 0.762236C3.5616 0.778483 3.57647 0.792413 3.58543 0.80101C3.59 0.805389 3.59365 0.808981 3.59586 0.811168C3.59699 0.812284 3.5979 0.813191 3.59845 0.813745C3.59874 0.814027 3.59897 0.814256 3.59911 0.814396C3.59918 0.814467 3.59924 0.814526 3.59927 0.814562C3.59929 0.81458 3.59931 0.814595 3.59932 0.814605C3.59932 0.814609 3.59933 0.814614 3.59933 0.814616C3.59933 0.814618 3.59933 0.814621 3.59933 0.814621C3.59963 0.814921 3.59794 0.813227 3.59595 0.81126C3.59377 0.809104 3.59016 0.805543 3.58562 0.801193C3.57672 0.792656 3.56192 0.778786 3.54278 0.762595C3.50388 0.729675 3.44233 0.683024 3.35866 0.641176L2.52838 2.30131C2.44454 2.25938 2.38285 2.21263 2.34381 2.1796C2.32461 2.16335 2.30974 2.14942 2.30078 2.14082C2.29621 2.13644 2.29256 2.13285 2.29035 2.13067C2.28922 2.12955 2.28831 2.12864 2.28776 2.12809C2.28748 2.12781 2.28725 2.12758 2.28711 2.12744C2.28703 2.12737 2.28698 2.12731 2.28694 2.12727C2.28692 2.12725 2.28691 2.12724 2.2869 2.12723C2.28689 2.12722 2.28689 2.12722 2.28689 2.12722C2.28688 2.12721 2.28688 2.12721 2.28688 2.12721C2.28658 2.12691 2.28827 2.12861 2.29026 2.13057C2.29244 2.13273 2.29606 2.13629 2.30059 2.14064C2.3095 2.14918 2.3243 2.16305 2.34343 2.17924C2.38234 2.21216 2.44388 2.25881 2.52756 2.30066L3.35784 0.64052ZM3.42097 0.675384L6.45304 2.49438L5.49814 4.08611L2.46606 2.26711L3.42097 0.675384ZM6.45339 2.49459C7.01679 2.83293 7.1991 3.56354 6.86121 4.12691L5.26938 3.17219C5.0804 3.48728 5.18234 3.89646 5.49778 4.08589L6.45339 2.49459ZM6.86066 4.12782C6.52315 4.68912 5.79341 4.87421 5.22831 4.53499L6.18365 2.94352C5.86717 2.75354 5.45854 2.85761 5.26992 3.17128L6.86066 4.12782ZM5.22855 4.53513L1.50608 2.30206L2.46095 0.710315L6.18342 2.94338L5.22855 4.53513ZM1.50638 2.30224C1.61064 2.36473 1.73919 2.38478 1.86046 2.35429L1.40796 0.554108C1.768 0.463607 2.14518 0.521047 2.46065 0.710136L1.50638 2.30224ZM1.85873 2.35473C1.97926 2.32468 2.08402 2.24634 2.14683 2.14134L0.55386 1.18851C0.743594 0.871312 1.04974 0.643415 1.4097 0.553673L1.85873 2.35473ZM2.14563 2.14333C2.20937 2.03738 2.22794 1.90921 2.19883 1.79147L0.396903 2.23699C0.308756 1.88048 0.364061 1.50403 0.555054 1.18652L2.14563 2.14333ZM2.19825 1.78914C2.16802 1.66824 2.08995 1.56465 1.98646 1.50249L1.03073 3.09372C0.715361 2.9043 0.487402 2.59901 0.397482 2.23933L2.19825 1.78914ZM1.98594 1.50218L2.7103 1.93661L1.7556 3.52846L1.03124 3.09403L1.98594 1.50218ZM2.71044 1.93669L5.70838 3.73537L4.75341 5.32706L1.75547 3.52838L2.71044 1.93669ZM5.7087 3.73556C6.2721 4.0739 6.4544 4.80451 6.11651 5.36788L4.52468 4.41316C4.3357 4.72825 4.43764 5.13743 4.75309 5.32686L5.7087 3.73556ZM6.11597 5.36879C5.77793 5.93096 5.04827 6.11417 4.48439 5.77642L5.43819 4.18403C5.12292 3.99519 4.71436 4.09771 4.52523 4.41225L6.11597 5.36879ZM4.48381 5.77607L1.45111 3.95657L2.40607 2.36487L5.43877 4.18438L4.48381 5.77607ZM1.45021 3.95603C1.67307 4.09008 1.95895 4.01663 2.09087 3.79699L0.499626 2.84128C0.89393 2.18477 1.74788 1.96897 2.40697 2.36542L1.45021 3.95603ZM2.09086 3.797C2.15414 3.69164 2.17288 3.56375 2.14373 3.44584L0.341807 3.89137C0.253619 3.53469 0.309096 3.15851 0.499631 2.84128L2.09086 3.797ZM2.14315 3.44351C2.11273 3.32184 2.03422 3.2186 1.93188 3.15707L0.97544 4.74787C0.660899 4.55876 0.432498 4.25415 0.342386 3.8937L2.14315 3.44351ZM1.93111 3.15661L2.67465 3.60267L1.71976 5.1944L0.976215 4.74834L1.93111 3.15661ZM2.67469 3.60269L4.96385 4.97614L4.00888 6.56782L1.71972 5.19437L2.67469 3.60269ZM4.96417 4.97633C5.52757 5.31466 5.70987 6.04528 5.37198 6.60865L3.78015 5.65392C3.59117 5.96901 3.69311 6.3782 4.00856 6.56763L4.96417 4.97633ZM5.37144 6.60955C5.03445 7.16998 4.30463 7.35695 3.73832 7.01626L4.6952 5.42572C4.3775 5.23459 3.96878 5.34022 3.7807 5.65302L5.37144 6.60955ZM3.73927 7.01683L1.45011 5.64338L2.40509 4.0517L4.69425 5.42515L3.73927 7.01683ZM1.45046 5.64359C1.55499 5.70625 1.68364 5.72584 1.80321 5.69594L1.35305 3.89517C1.71272 3.80526 2.08899 3.86224 2.40474 4.05149L1.45046 5.64359ZM1.80323 5.69594C1.92265 5.66609 2.02693 5.58874 2.0901 5.48346L0.498431 4.52846C0.68853 4.21163 0.994842 3.98472 1.35304 3.89517L1.80323 5.69594ZM2.09042 5.48292C2.15279 5.37881 2.17217 5.2515 2.14268 5.13238L0.340895 5.57848C0.252367 5.22091 0.308808 4.84499 0.498105 4.529L2.09042 5.48292ZM2.14217 5.13033C2.11175 5.00866 2.03324 4.90543 1.9309 4.8439L0.974458 6.4347C0.659916 6.24558 0.431515 5.94097 0.341403 5.58052L2.14217 5.13033ZM1.93012 4.84343L6.57081 7.62734L5.61594 9.21908L0.975243 6.43517L1.93012 4.84343ZM6.57085 7.62736C7.13486 7.96574 7.76795 8.07341 8.3523 7.95417L8.72343 9.77287C7.66192 9.98949 6.55805 9.7843 5.6159 9.21906L6.57085 7.62736ZM8.35219 7.95419C8.92616 7.83699 9.37037 7.51899 9.63607 7.07601L11.2279 8.03076C10.6795 8.94497 9.77831 9.55748 8.72354 9.77285L8.35219 7.95419ZM9.63623 7.07573C10.0908 6.31846 10.0301 5.50205 9.46351 4.81565L10.895 3.63402C11.9601 4.92439 12.0887 6.59668 11.2277 8.03104L9.63623 7.07573ZM10.2712 5.14836L10.2709 5.14839L10.087 3.30134L10.0873 3.30131L10.2712 5.14836Z" fill="#4CAF4F" mask="url(#path-1-inside-1_211_2342)"/>
</svg>
